<svg xmlns="http://www.w3.org/2000/svg" xmlns:xlink="http://www.w3.org/1999/xlink">
    <symbol id="air-conditioner" viewBox="0 0 161.57 184" preserveAspectRatio="xMidYMid">
        <path
                d="M160.604,101.443c-1.996-3.459-6.464-4.655-9.921-2.658l-20.967,12.105 c-0.273,0.158-0.528,0.337-0.773,0.524L95.312,91.999l33.629-19.416c0.246,0.188,0.501,0.368,0.776,0.527l20.967,12.103 c3.457,1.998,7.925,0.802,9.921-2.66c1.995-3.459,0.799-7.923-2.658-9.921l-14.547-8.397l14.4-8.314 c3.457-1.998,4.653-6.461,2.658-9.92c-1.996-3.459-6.465-4.655-9.921-2.658l-14.398,8.313V34.862c0-3.996-3.268-7.263-7.264-7.266 c-3.995,0-7.263,3.268-7.263,7.263v24.208c0,0.317,0.027,0.628,0.067,0.936L88.048,79.421V40.585 c0.285-0.119,0.567-0.25,0.842-0.409l20.967-12.105c3.457-1.998,4.653-6.461,2.657-9.92c-1.995-3.459-6.464-4.655-9.92-2.658 l-14.546,8.398V7.263C88.048,3.268,84.781,0,80.785,0c-3.996,0-7.263,3.268-7.263,7.263v16.628l-14.545-8.398 c-3.457-1.998-7.925-0.801-9.92,2.658s-0.799,7.923,2.657,9.92L72.68,40.177c0.274,0.159,0.557,0.29,0.842,0.408v38.833 L39.891,60.002c0.04-0.307,0.067-0.618,0.067-0.935V34.862c0-3.996-3.267-7.263-7.263-7.263c-3.996,0-7.263,3.268-7.263,7.263 v16.793l-14.399-8.313C7.577,41.345,3.108,42.541,1.113,46c-1.996,3.461-0.799,7.925,2.657,9.923l14.398,8.313L3.624,72.631 c-3.457,1.998-4.653,6.462-2.658,9.921c1.996,3.461,6.464,4.658,9.921,2.66l20.967-12.103c0.274-0.159,0.529-0.338,0.774-0.526 L66.259,92l-33.63,19.417c-0.246-0.188-0.501-0.367-0.776-0.526L10.887,98.788c-3.457-1.998-7.925-0.802-9.921,2.659 c-1.995,3.457-0.799,7.921,2.658,9.921l14.548,8.396L3.77,128.079c-3.457,2-4.653,6.464-2.657,9.921 c1.995,3.457,6.464,4.657,9.92,2.657l14.399-8.313v16.792c0,4.001,3.267,7.264,7.263,7.268c3.996,0,7.263-3.267,7.263-7.263v-24.206 c0-0.318-0.028-0.63-0.068-0.938l33.632-19.417v38.834c-0.285,0.119-0.567,0.25-0.842,0.408l-20.967,12.104 c-3.457,2.001-4.653,6.465-2.657,9.921c1.996,3.462,6.464,4.658,9.92,2.657l14.545-8.397v16.63c0,3.996,3.268,7.264,7.263,7.264 c3.996,0,7.263-3.268,7.263-7.264v-16.63l14.546,8.397c3.456,2.001,7.925,0.805,9.92-2.657c1.996-3.456,0.8-7.92-2.657-9.921 L88.89,143.821c-0.274-0.158-0.557-0.289-0.842-0.408V104.58l33.632,19.417c-0.04,0.308-0.067,0.619-0.067,0.938v24.201 c0,4.001,3.268,7.264,7.263,7.264c3.996,0,7.264-3.263,7.264-7.264v-16.791l14.398,8.313c3.456,2,7.925,0.8,9.921-2.657 c1.995-3.461,0.799-7.925-2.658-9.926l-14.397-8.312l14.544-8.395C161.403,109.368,162.6,104.904,160.604,101.443z"
                fill="#F89100"
                class="svgstore-item"
        ></path>
    </symbol>
    <symbol id="alarm" viewBox="0 0 13.951 16" preserveAspectRatio="xMidYMid">
        <path
                d="M6.976,1.312C3.123,1.312,0,4.434,0,8.285c0,3.854,3.123,6.977,6.976,6.977s6.976-3.123,6.976-6.977C13.951,4.434,10.828,1.312,6.976,1.312z M6.976,13.705c-2.993,0-5.417-2.428-5.417-5.42c0-2.99,2.424-5.417,5.417-5.417s5.418,2.427,5.418,5.417C12.394,11.277,9.969,13.705,6.976,13.705z M10.613,8.305c0,0.189-0.154,0.344-0.345,0.344H7.449C7.347,8.801,7.173,8.902,6.976,8.902c-0.313,0-0.569-0.256-0.569-0.57c0-0.232,0.142-0.434,0.343-0.521V3.505c0-0.127,0.103-0.229,0.229-0.229s0.229,0.103,0.229,0.229v4.31C7.283,7.848,7.35,7.898,7.403,7.961h2.865C10.459,7.961,10.613,8.115,10.613,8.305z M0.832,3.543c-0.58-0.897-0.084-2.251,1.11-3.023c1.193-0.773,2.633-0.672,3.214,0.227c0.033,0.052,0.051,0.111,0.078,0.165C3.511,1.336,2.014,2.327,0.95,3.681C0.91,3.634,0.866,3.596,0.832,3.543z M8.717,0.911c0.027-0.054,0.045-0.113,0.079-0.165c0.581-0.898,2.02-1,3.213-0.227c1.194,0.772,1.691,2.126,1.109,3.023c-0.033,0.053-0.078,0.091-0.117,0.138C11.938,2.327,10.44,1.336,8.717,0.911z M2.67,14.396c0.397,0.275,0.822,0.512,1.27,0.707l-0.277,0.516c-0.191,0.354-0.631,0.484-0.984,0.293c-0.354-0.189-0.484-0.631-0.295-0.982L2.67,14.396z M11.567,14.93c0.19,0.352,0.059,0.793-0.294,0.982c-0.354,0.191-0.794,0.061-0.983-0.293l-0.278-0.516c0.447-0.195,0.872-0.432,1.269-0.707L11.567,14.93z"
                fill="#F89100"
                class="svgstore-item"
        ></path>
    </symbol>
    <symbol id="armchair" viewBox="0 0 16 16" preserveAspectRatio="xMidYMid">
        <path
                d="M11.114,13.944H4.876v-3.189c0,0,1.208-0.383,3.11-0.383c1.901,0,3.127,0.383,3.127,0.383V13.944z M10.181,1.696C9.641,1.108,8.858,1,7.985,1C7.112,1,6.33,1.107,5.791,1.694C2.674,2.443,2.314,4.89,3.036,7.183C3.975,7.465,4.691,8.35,4.861,9.318l0.041,1.036c0.354-0.1,1.458-0.366,3.075-0.366c1.619,0,2.734,0.27,3.091,0.367l0.042-1.037c0.169-0.968,0.885-1.853,1.824-2.136C13.697,4.917,13.311,2.451,10.181,1.696z M4.521,9.717C4.486,8.396,3.49,7.569,2.263,7.569C1.013,7.569,0,8.552,0,9.769c0,1.183,0.955,2.146,2.155,2.199c0.2,0.009,0.262,0.209,0.262,0.209L2.566,15h1.956V9.717z M11.459,15h1.977l0.148-2.824c0,0,0.063-0.218,0.262-0.227C15.045,11.895,16,10.938,16,9.758c0-1.218-1.013-2.192-2.262-2.192c-1.227,0-2.244,0.831-2.279,2.151V15z"
                fill="#F89100"
                class="svgstore-item"
        ></path>
    </symbol>
    <symbol id="balcony" viewBox="0 0 16 16" preserveAspectRatio="xMidYMid">
        <path
                d="M14.364,5.893c-0.562-0.813-1.048-1.515-0.956-2.144c0.083-0.418,0.313-0.718,0.632-0.822c0.301-0.1,0.634-0.011,0.911,0.243c0.17,0.156,0.255,0.464,0.202,0.731C15.135,4,15.079,4.17,14.927,4.235c-0.093,0.024-0.21,0.035-0.267-0.037c-0.048-0.06-0.057-0.165-0.02-0.229c0.113-0.199,0.042-0.453-0.157-0.566c-0.199-0.113-0.452-0.042-0.566,0.157c-0.202,0.356-0.164,0.83,0.091,1.153c0.262,0.332,0.696,0.451,1.165,0.317l0.028-0.01c0.397-0.146,0.677-0.496,0.769-0.958c0.107-0.551-0.076-1.156-0.458-1.505c-0.498-0.455-1.144-0.611-1.731-0.419c-0.399,0.131-0.719,0.424-0.938,0.813H3.126c-0.218-0.387-0.54-0.681-0.942-0.813C1.598,1.945,0.951,2.102,0.453,2.557c-0.382,0.35-0.565,0.955-0.458,1.505C0.087,4.524,0.366,4.874,0.763,5.02l0.03,0.01C1.26,5.163,1.696,5.044,1.958,4.712C2.212,4.39,2.249,3.916,2.048,3.56c-0.113-0.2-0.366-0.271-0.566-0.157c-0.2,0.113-0.271,0.367-0.157,0.566c0.036,0.064,0.027,0.169-0.02,0.229C1.248,4.27,1.131,4.259,1.038,4.235C0.885,4.17,0.831,4,0.812,3.901C0.759,3.634,0.844,3.326,1.015,3.17c0.277-0.253,0.608-0.342,0.911-0.243c0.318,0.104,0.549,0.404,0.628,0.801c0.095,0.65-0.391,1.352-0.953,2.165C0.269,7.818-1.164,10.026,1.549,13v1.001h13.023v-1.178C17.122,9.894,15.71,7.837,14.364,5.893z M13.681,6.365c1.274,1.844,2.256,3.266,0.668,5.419h-1.574c0.638-2.311-0.113-4.538-0.749-5.791c-0.25-0.493-0.466-0.943-0.589-1.381h1.254C12.881,5.204,13.271,5.774,13.681,6.365z M10.01,11.784c0.383-1.743,0.006-3.691-0.375-4.972c-0.223-0.75-0.43-1.47-0.479-2.2h1.428c0.128,0.594,0.399,1.166,0.699,1.757c0.645,1.267,1.306,3.338,0.639,5.415H10.01z M6.808,11.784c-0.404-1.573-0.057-3.471,0.319-4.735c0.233-0.785,0.465-1.59,0.515-2.436h0.683c0.049,0.846,0.282,1.651,0.515,2.436c0.375,1.264,0.723,3.162,0.318,4.735H6.808z M4.043,11.784C3.376,9.708,4.038,7.637,4.681,6.37c0.3-0.591,0.572-1.163,0.7-1.757h1.428c-0.049,0.73-0.256,1.45-0.479,2.2c-0.38,1.28-0.758,3.229-0.375,4.972H4.043z M2.285,6.365c0.408-0.589,0.797-1.158,0.988-1.752h1.256C4.405,5.05,4.189,5.501,3.939,5.994c-0.636,1.252-1.386,3.48-0.748,5.791H1.622C0.084,9.66,1.048,8.152,2.285,6.365z"
                fill="#F89100"
                class="svgstore-item"
        ></path>
    </symbol>
    <symbol id="bath-or-shower" viewBox="0 0 16 16" preserveAspectRatio="xMidYMid">
        <path
                fill="#F89100"
                d="M9.261,4.701C9.145,4.633,9.075,4.47,9.239,4.252c0.109-0.144,0.333-0.166,0.519-0.408 c-0.092,0.283-0.05,0.496-0.096,0.65C9.583,4.755,9.378,4.768,9.261,4.701z M7.999,3.581c0.095,0.095,0.297,0.137,0.441-0.096 c0.084-0.138,0.1-0.354,0.262-0.604c-0.242,0.186-0.465,0.15-0.606,0.261C7.879,3.31,7.904,3.486,7.999,3.581z M7.328,2.343 c0.117-0.111,0.188-0.315,0.409-0.516C7.455,1.944,7.25,1.852,7.084,1.923C6.832,2.03,6.81,2.206,6.877,2.322 C6.944,2.438,7.128,2.531,7.328,2.343z M8.211,6.584c0.135,0.077,0.371,0.063,0.461-0.237C8.725,6.17,8.677,5.926,8.781,5.602 C8.569,5.879,8.313,5.905,8.188,6.07C7.999,6.319,8.078,6.507,8.211,6.584z M6.975,4.994c0.097-0.157,0.115-0.405,0.3-0.692 C6.998,4.514,6.743,4.473,6.58,4.6C6.333,4.793,6.36,4.995,6.469,5.104C6.579,5.212,6.811,5.261,6.975,4.994z M5.502,3.39 c0.134-0.127,0.215-0.362,0.47-0.591c-0.323,0.134-0.559,0.029-0.749,0.11C4.935,3.031,4.909,3.233,4.986,3.366 C5.063,3.499,5.274,3.605,5.502,3.39z M7.105,7.94C6.873,8.248,6.971,8.479,7.134,8.573C7.299,8.667,7.589,8.65,7.7,8.282 c0.064-0.217,0.006-0.518,0.135-0.916C7.574,7.706,7.258,7.738,7.105,7.94z M5.487,6.565c0.12-0.193,0.141-0.498,0.37-0.852 C5.515,5.976,5.201,5.925,5.001,6.081C4.697,6.318,4.732,6.566,4.865,6.7C5,6.833,5.285,6.893,5.487,6.565z M3.624,4.466 C3.789,4.311,3.889,4.021,4.201,3.74C3.804,3.905,3.514,3.775,3.28,3.875C2.925,4.026,2.894,4.274,2.989,4.438 C3.084,4.601,3.343,4.731,3.624,4.466z M9.08,11.507c-4.492-0.336-5.516-1.925-8.216-1.925c0,0.394,0.864,5.062,2.817,5.062H4.37 c-0.316,0.757-0.993,0.643-0.806,1.243c0.037,0.12,0.836,0.178,1.056,0c0.453-0.364,0.513-1.052,0.521-1.243h7.27 c0.008,0.191,0.068,0.879,0.521,1.243c0.22,0.178,1.02,0.12,1.057,0c0.187-0.601-0.49-0.486-0.806-1.243h0.485 c1.078,0,1.537-3.53,1.537-3.53S13.571,11.842,9.08,11.507z M15.616,9.922c-0.003,0-0.006,0-0.009,0.001 c-0.278,0.006-0.451,0.075-0.487,0.083l-0.071,0.023c-0.004,0.002-0.115,0.047-0.347,0.108V5.502c0-0.553-0.109-0.937-0.246-1.203 c-0.262-0.617-0.924-1.959-2.17-3.2C10.61-0.572,9.027,0.074,8.472,0.39c-0.028,0.012-0.17,0.105-0.17,0.105 C8.084,0.714,8.064,1.06,8.064,1.06l2.396,2.388c0,0,0.318-0.047,0.534-0.263c0,0,0.187-0.377,0.181-0.593 c0.074-0.12,0.267-0.253,0.74,0.112c0.682,0.524,1.533,1.653,1.883,2.135c0.048,0.153,0.086,0.366,0.086,0.664v4.801 c-0.931,0.145-2.464,0.261-4.776,0.089c-2.353-0.176-3.717-0.698-4.92-1.159C3.114,8.821,2.187,8.466,0.864,8.466h-0.48 C0.172,8.466,0,8.638,0,8.849c0,0.212,0.172,0.383,0.384,0.383h0.48c1.18,0,2.005,0.316,3.048,0.716 c1.191,0.455,2.672,1.023,5.138,1.207c0.849,0.063,1.598,0.09,2.255,0.09c2.6,0,3.776-0.404,4.012-0.498 c0.098-0.02,0.154-0.055,0.307-0.059c0.212-0.005,0.38-0.18,0.376-0.391C15.995,10.088,15.824,9.922,15.616,9.922z"
                class="svgstore-item"
        ></path>
    </symbol>
    <symbol id="bathrobe" viewBox="0 0 15 16" preserveAspectRatio="xMidYMid">
        <path
                d="M6.963,5.288L3.236,1.056c0,0,1.051-1.056,4.194-1.056c2.662,0,4.043,1.056,4.043,1.056L6.524,7.479L6.346,9.693H5.938V7.391l3.943-6.064c0,0-0.563-0.381-2.55-0.381S4.688,1.326,4.688,1.326L6.963,5.288z M5.938,11.004V16l0.326-4.996H5.938z M4.48,10.773h6.02v-0.85H4.48V10.773z M5.638,9.693V7.305l1.125-1.789L3.236,1.867L1.5,2.568L0,12.832h1.275l2.049-7.236l-0.956-1.74l1.147,1.611L4.5,9.693H5.638z M4.537,11.004v0.02l-1.1,4.133l2.2,0.223v-4.375H4.537z M10.463,11.004H6.586l-0.349,4.965l5.05-0.885l-0.825-4.061L10.463,11.004z M13.5,2.568l-1.913-0.701L6.816,7.588L6.66,9.693h3.84l0.962-4.195l0.95-1.453l-0.741,1.486l2.053,7.301H15L13.5,2.568z"
                fill="#F89100"
                class="svgstore-item"
        ></path>
    </symbol>
    <symbol id="bathroom" viewBox="0 0 15 11.28579" preserveAspectRatio="xMidYMid">
        <path
                d="m 14.982188,2.836453 c 0,0 -0.360185,0.03001 -0.91547,0.09005 0,0 0,-1.530786 0,-1.530786 C 14.066718,0.630324 13.436395,0 12.671002,0 c -0.780401,0 -1.395717,0.630324 -1.395717,1.395717 0,0 0,0.510262 0,0.510262 l 0.91547,0 c 0,0 0,-0.495254 0,-0.495254 0,-0.255131 0.1951,-0.465239 0.465239,-0.465239 0.255131,0 0.465239,0.210108 0.465239,0.465239 0,0 0,1.605824 0,1.605824 C 11.500401,3.151618 9.2192297,3.331711 8.0036057,3.256672 4.5068106,3.076576 0.01950709,0.930474 0.01950709,0.930474 l 0,0 c 0,0 -0.16508475,0.825424 0.46523883,1.155593 C 1.7303853,2.65636 5.197165,4.052077 8.0036057,4.202154 9.7895225,4.307208 13.871618,3.856976 14.787088,3.781938 c 0.300154,-0.255131 0.1951,-0.945485 0.1951,-0.945485 z M 4.3267181,9.394819 3.72641,11.28579 l 0.8254237,0 1.1706009,-1.890971 z m 6.7834819,0 1.170601,1.890971 0.825424,0 -0.600308,-1.890971 z M 14.081726,8.449334 C 14.201787,7.834018 14.561972,5.883016 14.787088,4.787454 13.871618,4.862494 9.7895225,5.387762 8.0036057,5.282708 5.197165,5.132631 1.7303853,3.661876 0.48474592,3.091584 1.2201234,4.862493 2.5408013,8.074141 2.81094,8.479349 c 0.3601849,0.555285 0.3001541,0.91547 1.7859168,0.930478 1.7559014,0.03001 6.5433592,0 7.6089062,0 1.065547,0 1.69587,-0.150077 1.875963,-0.960493 z"
                fill="#F89100"
                class="svgstore-item"
        ></path>
    </symbol>
    <symbol id="bedside-table" viewBox="0 0 12 16" preserveAspectRatio="xMidYMid">
        <path
                d="M0,0v14.021h12V0H0z M10.3,1.669v5.007H1.701V1.669H10.3z M1.701,12.352V7.344H10.3v5.008H1.701z M0.68,14.664h1.701V16H0.68V14.664z M9.619,14.664h1.7V16h-1.7V14.664z M6.989,3.266H5.011V2.598h1.979V3.266z M5.011,8.314h1.979v0.668H5.011V8.314z"
                fill="#F89100"
                class="svgstore-item"
        ></path>
    </symbol>
    <symbol id="boiler" viewBox="0 0 16 16" preserveAspectRatio="xMidYMid">
        <path
                d="M13,12.412l-0.278,0.511c0,0-0.537,1.306-2.695,1.846V16h-1v-1.059 C8.708,14.976,8.372,15,8,15c-0.358,0-0.682-0.022-0.99-0.055V16h-1v-1.222c-2.19-0.534-2.732-1.855-2.732-1.855L3,12.412 C6.923,12.864,9.076,12.864,13,12.412z M13,2.374v9.442c-3.928,0.457-6.072,0.457-10,0V2.374C3,2.374,4.101,0,8,0 C11.899,0,13,2.374,13,2.374z M9.111,7.708c0,0-0.196-0.594-1.111-0.594S6.889,7.708,6.889,7.708v3.264h2.222V7.708z M9.111,1.905 c0,0-0.196-0.297-1.111-0.297S6.889,1.905,6.889,1.905v0.296h2.222V1.905z"
                fill="#F89100"
                class="svgstore-item"
        ></path>
    </symbol>
    <symbol id="bottled-water" viewBox="0 0 16 16" preserveAspectRatio="xMidYMid">
        <path
                d="M6.012,9.375v5.664c0,0.541-0.371,0.98-0.834,0.98c0,0-0.234-0.183-0.576-0.298 c-0.125,0.18-0.313,0.298-0.527,0.298c-0.217,0-0.406-0.119-0.531-0.302C3.174,15.833,2.9,16.02,2.9,16.02 c-0.463,0-0.9-0.439-0.9-0.98V9.375c0-1.277,0.651-2.124,1.146-2.406v-0.95h1.719v0.887C5.342,7.1,6.012,7.981,6.012,9.375z M5.152,4.021H2.859v1.021h2.293V4.021z M14,5.81v9.066c0,0.631-0.564,1.144-1.286,1.144c0,0-0.335-0.198-0.831-0.334 c-0.213,0.203-0.525,0.334-0.879,0.334c-0.354,0-0.669-0.131-0.879-0.334c-0.498,0.136-0.834,0.334-0.834,0.334 c-0.721,0-1.279-0.513-1.279-1.144V5.81c0-1.729,1.43-2.87,2.206-3.014V2.017h1.575v0.78C12.571,2.944,14,4.084,14,5.81z M12.203,0 H9.809v1.041h2.395V0z"
                fill="#F89100"
                class="svgstore-item"
        ></path>
    </symbol>
    <symbol id="carpet" viewBox="0 0 16 14.339" preserveAspectRatio="xMidYMid">
        <path
                d="M3.507,14.339c-0.12,0-0.241-0.007-0.364-0.021c-0.941-0.108-1.784-0.577-2.373-1.32c-0.59-0.742-0.854-1.67-0.745-2.612C0.138,9.399,0.6,8.564,1.359,7.971c0.835-0.65,1.932-0.935,3.09-0.802c1.404,0.162,2.639,1.135,3.385,2.667c0.027,0.055,0.056,0.118,0.088,0.189c0.386,0.849,1.188,2.612,4.388,3.097c0.16,0.024,0.271,0.174,0.246,0.334s-0.174,0.269-0.334,0.246c-3.514-0.532-4.438-2.565-4.833-3.434c-0.031-0.065-0.058-0.125-0.082-0.176C6.649,8.744,5.584,7.891,4.382,7.752C3.377,7.638,2.434,7.878,1.721,8.434c-0.633,0.494-1.018,1.192-1.113,2.019c-0.091,0.786,0.13,1.561,0.621,2.181c0.492,0.62,1.195,1.012,1.982,1.103c1.408,0.162,2.687-0.852,2.849-2.261c0.068-0.591-0.098-1.173-0.468-1.639c-0.369-0.467-0.898-0.761-1.49-0.829c-0.51-0.058-1.013,0.085-1.416,0.404c-0.402,0.319-0.657,0.776-0.717,1.287c-0.104,0.908,0.549,1.733,1.458,1.838c0.78,0.086,1.489-0.472,1.579-1.252c0.041-0.358-0.058-0.712-0.27-0.97c-0.185-0.224-0.434-0.354-0.723-0.375c-0.443-0.032-0.987,0.134-1.055,0.719c-0.045,0.398,0.09,0.885,0.623,0.946c0.16,0.019,0.275,0.164,0.258,0.325c-0.02,0.161-0.163,0.278-0.325,0.258c-0.769-0.088-1.236-0.744-1.139-1.597C2.468,9.794,3.16,9.286,4.059,9.354c0.445,0.034,0.846,0.242,1.13,0.587c0.313,0.38,0.459,0.894,0.399,1.41c-0.127,1.102-1.127,1.896-2.229,1.768c-1.23-0.143-2.115-1.258-1.973-2.488c0.076-0.666,0.408-1.263,0.934-1.68c0.526-0.417,1.183-0.604,1.85-0.527C4.916,8.51,5.585,8.882,6.053,9.471c0.467,0.589,0.676,1.325,0.59,2.071C6.457,13.15,5.088,14.339,3.507,14.339z M1.445,7.226c0.762-0.59,2.166-0.782,3.269-0.641c1.503,0.194,2.601,1.311,3.233,2.582c0.331,0.664,1.02,2.665,4.118,3.421c0.218,0.053,3.125-5.812,2.916-5.861c-3.124-0.749-3.817-2.762-4.149-3.429C10.199,2.026,9.396,1.204,7.893,1.01C6.791,0.868,5.75,1.132,4.988,1.722L1.445,7.226z M15.994,6.263c0.033-0.159-0.069-0.314-0.229-0.348c-2.958-0.607-3.755-2.318-4.138-3.141c-0.034-0.072-0.064-0.138-0.093-0.193c-0.527-1.061-1.365-2.308-3.182-2.543c-0.828-0.105-1.846,0.012-2.59,0.3c-0.151,0.059-0.227,0.229-0.168,0.38c0.059,0.15,0.229,0.227,0.38,0.168C6.636,0.63,7.541,0.526,8.278,0.62c1.219,0.158,2.035,0.822,2.731,2.223c0.026,0.052,0.055,0.111,0.086,0.18c0.39,0.838,1.305,2.801,4.552,3.468c0.021,0.005,0.04,0.007,0.06,0.007C15.844,6.497,15.966,6.401,15.994,6.263z M12.822,12.904c0.162,0,0.293-0.131,0.293-0.293s-0.131-0.294-0.293-0.294s-0.294,0.132-0.294,0.294S12.66,12.904,12.822,12.904z M13.202,12.118c0.162,0,0.293-0.132,0.293-0.294s-0.131-0.293-0.293-0.293c-0.163,0-0.294,0.131-0.294,0.293S13.039,12.118,13.202,12.118z M13.582,11.331c0.162,0,0.293-0.131,0.293-0.294c0-0.162-0.131-0.293-0.293-0.293s-0.294,0.131-0.294,0.293C13.288,11.2,13.42,11.331,13.582,11.331z M13.962,10.544c0.162,0,0.293-0.131,0.293-0.293c0-0.163-0.131-0.294-0.293-0.294c-0.163,0-0.294,0.131-0.294,0.294C13.668,10.413,13.799,10.544,13.962,10.544z M14.342,9.757c0.162,0,0.293-0.131,0.293-0.293S14.504,9.17,14.342,9.17s-0.294,0.132-0.294,0.294S14.18,9.757,14.342,9.757z M14.722,8.971c0.162,0,0.293-0.132,0.293-0.294s-0.131-0.293-0.293-0.293c-0.163,0-0.294,0.131-0.294,0.293S14.559,8.971,14.722,8.971z M15.102,8.184c0.162,0,0.293-0.131,0.293-0.294c0-0.162-0.131-0.293-0.293-0.293s-0.294,0.131-0.294,0.293C14.808,8.053,14.939,8.184,15.102,8.184z M15.481,7.397c0.162,0,0.293-0.132,0.293-0.294c0-0.163-0.131-0.294-0.293-0.294c-0.163,0-0.294,0.131-0.294,0.294C15.188,7.266,15.318,7.397,15.481,7.397z"
                fill="#F89100"
                class="svgstore-item"
        ></path>
    </symbol>
    <symbol id="chair" viewBox="0 0 11.417 16" preserveAspectRatio="xMidYMid">
        <path
                d="M10.824,8.852c0.326,0,0.593,0.267,0.593,0.593v0.593c0,0.326,0,0.859,0,1.186v4.185c0,0.326-0.267,0.593-0.593,0.593h-0.592c-0.326,0-0.593-0.267-0.593-0.593v-4.185c0-0.326-0.267-0.593-0.593-0.593h-5.89c-0.325,0-0.592,0.267-0.592,0.593v4.185C2.565,15.733,2.298,16,1.973,16H1.38c-0.326,0-0.592-0.267-0.592-0.593V5.203c0-0.325-0.051-0.854-0.113-1.174L0.011,0.582C-0.052,0.262,0.165,0,0.491,0h0.593c0.325,0,0.643,0.262,0.704,0.582l0.665,3.447c0.062,0.32,0.112,0.849,0.112,1.174v3.056c0,0.326,0.267,0.593,0.592,0.593h5.89c0.326,0,0.859,0,1.186,0H10.824z M10.836,8.086c-0.23-0.23-0.686-0.42-1.012-0.42H4.047c-0.325,0-0.781,0.189-1.012,0.42L2.984,8.137c-0.23,0.23-0.152,0.419,0.173,0.419h7.557c0.325,0,0.403-0.188,0.173-0.419L10.836,8.086z M3.033,4.264C3.124,4.13,3.173,3.891,3.143,3.73L2.601,0.914C2.569,0.755,2.435,0.551,2.302,0.46l-0.03-0.021C2.138,0.35,2.054,0.405,2.083,0.563l0.709,3.685c0.031,0.159,0.131,0.18,0.221,0.045L3.033,4.264z"
                fill="#F89100"
                class="svgstore-item"
        ></path>
    </symbol>
    <symbol id="child-rollaway" viewBox="0 0 16 16" preserveAspectRatio="xMidYMid">
        <path
                d="M14.519,1.667V3.74H1.481V1.667H0V15h1.481v-2.963h13.037V15H16V1.667H14.519z M5.653,4.629h2.098v5.333 H5.653V4.629z M5.061,9.963H2.963V4.629h2.098V9.963z M8.344,4.629h2.098v5.333H8.344V4.629z M11.033,4.629h2.098v5.333h-2.098 V4.629z M1.481,4.629h0.889v5.333H1.481V4.629z M13.724,9.963V4.629h0.795v5.333H13.724z"
                fill="#F89100"
                class="svgstore-item"
        ></path>
    </symbol>
    <symbol id="coffee-machine" viewBox="0 0 16 15.988" preserveAspectRatio="xMidYMid">
        <path
                d="M11.353,14.959c1.281-1.393,1.722-3.898,1.722-6.425h-9.2c0,0.183,0.003,0.364,0.008,0.545C3.264,8.77,2.571,8.582,1.879,8.58c-0.625,0-1.379,0.035-1.678,0.648C-0.041,9.727,0,10.357,0.05,10.891c0.11,1.182,0.863,2.629,2.321,2.629c0.471-0.017,0.938-0.117,1.408-0.101c0.646,0.022,0.463,0.685,0.999,0.892c0.112,0.043,0.236,0.051,0.357,0.058c0.139,0.216,0.293,0.41,0.458,0.591H1.392c1.842,0.736,5.265,1.029,7.104,1.029s5.191-0.19,7.105-1.029H11.353z M3.779,12.738c-0.478,0.002-0.947,0.088-1.423,0.1c-0.967,0-1.29-1.088-1.388-1.846c-0.054-0.417-0.107-0.926-0.003-1.34C1.08,9.194,1.489,9.261,1.879,9.262c0.71-0.004,1.442,0.25,2.042,0.635c0.074,1.073,0.244,2.105,0.541,3.01C4.302,12.791,4.126,12.736,3.779,12.738z M11.17,2.854c-1.496,2.087,2.516,3.692-0.126,5.106C12.118,6.707,9.132,4.926,11.17,2.854z M8,4.251c-0.29,0.763-1.043,1.88-1.043,2.606C6.957,7.434,7.424,7.9,8,7.9s1.043-0.467,1.043-1.043C9.043,6.131,8.274,5.067,8,4.251z M8.207,7.714c0.194-0.122,0.354-0.349,0.401-0.589l0.213-0.058C8.755,7.38,8.511,7.665,8.207,7.714z M8.626,7.025C8.74,6.523,8.598,6.171,8.368,5.715c0.24,0.422,0.475,0.75,0.475,1.179c0,0.034-0.006,0.067-0.008,0.099L8.626,7.025z M16,0H0v1.678h6.342l1.162,1.801h0.994l1.159-1.801H16V0z M12.926,1.109h-0.352V0.568h0.352V1.109z M15.407,1.109h-1.852V0.568h1.852V1.109z"
                fill="#F89100"
                class="svgstore-item"
        ></path>
    </symbol>
    <symbol id="cooler" viewBox="0 0 13.158 16" preserveAspectRatio="xMidYMid">
        <path
                d="M11.996,12.686H1.161C0.522,12.686,0,13.209,0,13.848V16h13.158v-2.152C13.158,13.209,12.637,12.686,11.996,12.686z M11.598,14.9H9.842v-0.951h1.756V14.9z M2.516,8.99v0.262c0,0.826,1.398,1.479,2.563,1.879H3.114l-0.835,1.266h8.6l-0.836-1.266H8.127c1.143-0.4,2.516-1.053,2.516-1.879V8.99c0.148-0.018,0.266-0.141,0.266-0.293v-0.85c0-0.154-0.117-0.275-0.266-0.295V6.838c0.148-0.018,0.266-0.141,0.266-0.293V5.694c0-0.153-0.117-0.275-0.266-0.294V2.023c0.148-0.021,0.266-0.145,0.266-0.299v-0.9c0-0.008-0.004-0.016-0.004-0.023c0-0.013,0.004-0.025,0.004-0.039C10.908,0.343,10.518,0,10.037,0H9.482H3.676H3.121C2.642,0,2.25,0.343,2.25,0.762c0,0.014,0.004,0.026,0.004,0.039c0,0.008-0.004,0.016-0.004,0.023v0.9c0,0.154,0.117,0.277,0.266,0.299V5.4C2.367,5.419,2.25,5.541,2.25,5.694v0.851c0,0.152,0.117,0.275,0.266,0.293v0.715C2.367,7.572,2.25,7.693,2.25,7.848v0.85C2.25,8.85,2.367,8.973,2.516,8.99z M2.845,0.875l0.006-0.07c0,0-0.003-0.053-0.004-0.059c0.016-0.065,0.12-0.15,0.274-0.15h6.916c0.154,0,0.26,0.085,0.273,0.15c0,0.008-0.004,0.061-0.004,0.061l0.006,0.078v0.584l-0.266,0.039v1.991H3.111V1.507L2.845,1.469V0.875z"
                fill="#F89100"
                class="svgstore-item"
        ></path>
    </symbol>
    <symbol id="cosmetics" viewBox="0 0 15 16" preserveAspectRatio="xMidYMid">
        <path
                d="M6.387,3.304V2.069c0-0.09,0.074-0.163,0.164-0.163H8.43c0.092,0,0.166,0.073,0.166,0.163v1.234c0,0.09-0.074,0.163-0.166,0.163H6.551C6.461,3.467,6.387,3.394,6.387,3.304z M10.893,0.412C8.195-0.684,7.962,0.84,6.545,0.07c-0.316,0.308-0.104,0.77,0,0.848c0.084,0.011,0.156,0.016,0.234,0.023v0.67h1.424V0.869c0.932-0.229,1.248-0.73,2.512-0.251C10.81,0.618,10.893,0.412,10.893,0.412z M8.144,4.04H6.839c-0.845,0-1.542,0.681-1.542,1.514v10.145C5.297,15.864,5.435,16,5.604,16h1.235h1.305h1.222c0.169,0,0.313-0.136,0.313-0.302V5.554C9.679,4.721,8.987,4.04,8.144,4.04z M1.256,5.287h1.877c0.092,0,0.166-0.074,0.166-0.163V4.201c0-0.09-0.074-0.163-0.166-0.163H2.906V2.756H1.482v1.282H1.256c-0.091,0-0.165,0.073-0.165,0.163v0.923C1.091,5.213,1.165,5.287,1.256,5.287z M2.848,5.86H1.543C0.697,5.86,0,6.542,0,7.374v8.324C0,15.864,0.139,16,0.308,16h1.235h1.305h1.221c0.169,0,0.314-0.136,0.314-0.302V7.374C4.383,6.542,3.691,5.86,2.848,5.86z M11.874,7.405h1.878c0.091,0,0.166-0.073,0.166-0.162V5.108c0-0.089-0.075-0.162-0.166-0.162h-1.878c-0.092,0-0.165,0.073-0.165,0.162v2.135C11.709,7.332,11.782,7.405,11.874,7.405z M13.465,7.979h-1.304c-0.845,0-1.542,0.681-1.542,1.514v6.205c0,0.166,0.137,0.302,0.308,0.302h1.234h1.304h1.222C14.855,16,15,15.864,15,15.698V9.493C15,8.66,14.311,7.979,13.465,7.979z"
                fill="#F89100"
                class="svgstore-item"
        ></path>
    </symbol>
    <symbol id="cupboard" viewBox="0 0 13 16" preserveAspectRatio="xMidYMid">
        <path d="M0,1.916V16h6.205V1.916H0z M5.602,9.493H4.715V7.424h0.887V9.493z M6.795,1.916V16H13V1.916H6.795z M8.269,9.493H7.383V7.424h0.886V9.493z M12.999,1.479H0V0h12.999V1.479z" fill="#F89100" class="svgstore-item"></path>
    </symbol>
    <symbol id="desk" viewBox="0 0 16 16" preserveAspectRatio="xMidYMid">
        <path
                d="M16.021,5L16,6h-0.969l0.021,2v7H14V8H2v7H0.992V8L0.97,6H0l0.021-1H16.021z M11.686,13.738l-0.102-0.441l-3.078-0.813v-1.449H8.264v-0.857h0.603l0.548-0.484H6.566l0.549,0.484h0.664v0.857H7.536v1.449l-3.092,0.813l-0.119,0.441l3.21-0.484v0.053h0.311l0.055,0.354h0.176l0.055-0.354h0.372v-0.053L11.686,13.738z M4.636,13.852c-0.2,0-0.362,0.162-0.362,0.363c0,0.199,0.163,0.361,0.362,0.361C4.838,14.576,5,14.414,5,14.215C5,14.014,4.838,13.852,4.636,13.852z M7.991,13.852c-0.202,0-0.364,0.162-0.364,0.363c0,0.199,0.163,0.361,0.364,0.361c0.201,0,0.363-0.162,0.363-0.361C8.354,14.014,8.191,13.852,7.991,13.852z M11.344,13.852c-0.201,0-0.363,0.162-0.363,0.363c0,0.199,0.162,0.361,0.363,0.361s0.363-0.162,0.363-0.361C11.707,14.014,11.545,13.852,11.344,13.852z M6.683,9.539c0.147,0.01,2.427,0.01,2.575,0c0.625-0.037,1.449-0.299,1.449-0.299c0.146,0,0.225-0.143,0.225-0.316V8.629c0-0.174-0.34-0.316-0.486-0.316c0,0-0.805,0.264-1.428,0.301c-0.149,0.01-1.939,0.01-2.087,0C6.305,8.576,5.441,8.313,5.441,8.313c-0.149,0-0.571,0.143-0.571,0.316v0.295c0,0.174,0.162,0.316,0.309,0.316C5.179,9.24,6.058,9.502,6.683,9.539z M10.501,3.596c0-0.155-0.458-2.629-1.326-2.596C8.971,1.009,7.102,1.021,6.897,1.012C6.028,0.978,5.479,3.434,5.479,3.591L5.42,4h5.14L10.501,3.596z"
                fill="#F89100"
                class="svgstore-item"
        ></path>
    </symbol>
    <symbol id="dishes" viewBox="0 0 16 10.133" preserveAspectRatio="xMidYMid">
        <path
                d="M16,7.402c-0.213,0.975-2.359,2.73-8,2.73s-7.788-1.756-8-2.73c1.364,0.723,6.06,1.07,8,1.07C9.941,8.473,14.635,8.125,16,7.402z M8,8c4.484,0,6.191-1.396,6.359-2.17C13.275,6.404,9.543,6.68,8,6.68S2.725,6.404,1.641,5.83C1.809,6.604,3.516,8,8,8z M8,6.146c3.252,0,4.488-1.012,4.611-1.572C11.824,4.99,9.119,5.189,8,5.189c-1.118,0-3.824-0.199-4.61-0.615C3.512,5.135,4.75,6.146,8,6.146z M5.519,0.199c0.04,0.197,1.117,0.355,2.442,0.355c1.324,0,2.4-0.158,2.441-0.355c0,0.104-0.002,0.205-0.004,0.308c0.365-0.194,0.764-0.302,1.133-0.304c0.293,0,0.572,0.005,0.791,0.18c0.219,0.174,0.264,0.521,0.26,0.858c0,0.002,0,0.003,0,0.005V1.25v0.005c-0.004,0.478-0.07,0.941-0.311,1.3c-0.242,0.354-0.582,0.621-0.992,0.625c-0.01,0-0.018,0-0.027,0c-0.281-0.011-0.553-0.062-0.797-0.061C10.252,3.121,10.078,3.15,9.912,3.25C9.736,3.668,9.504,4.018,9.207,4.271C9.188,4.525,9.021,4.76,7.961,4.76S6.734,4.525,6.715,4.271C5.82,3.504,5.521,1.86,5.519,0.199z M10.377,0.997c-0.041,0.62-0.131,1.218-0.287,1.747c0.125-0.027,0.248-0.037,0.365-0.035c0.297,0,0.574,0.053,0.805,0.06c0.01,0,0.016,0.001,0.02,0.001c0.209,0.002,0.457-0.156,0.652-0.445c0.191-0.283,0.236-0.678,0.24-1.066c0-0.005,0-0.011,0-0.017c-0.002-0.243,0.01-0.442-0.107-0.539c-0.119-0.097-0.305-0.089-0.533-0.089C11.178,0.611,10.74,0.754,10.377,0.997z M10.076,0.188C9.76,0.101,9.049,0,7.961,0S6.162,0.101,5.846,0.188c0.316,0.088,1.027,0.188,2.115,0.188S9.76,0.275,10.076,0.188z"
                fill="#F89100"
                class="svgstore-item"
        ></path>
    </symbol>
    <symbol id="dishwasher" viewBox="0 0 16 16" preserveAspectRatio="xMidYMid">
        <path d="M0,2.684V16h16V2.684H0z M11.848,4.293H4.152V3.657h7.695V4.293z M16,2.385V0H0v2.385H16z M6.515,0.77h2.972v0.895H6.515V0.77z" fill="#F89100" class="svgstore-item"></path>
    </symbol>
    <symbol id="double" viewBox="0 0 15 11.223776" preserveAspectRatio="xMidYMid">
        <path
                d="m 14.985015,1.873127 c 0,0 0,0 0,0 C 14.985015,0.839161 14.145854,0 13.111888,0 c 0,0 -11.2087911,0 -11.2087911,0 -1.03396603,0 -1.87312687,0.839161 -1.87312687,1.873127 0,0 -0.02997003,0 -0.02997003,0 l 0,9.350649 0.97402597,0 0,-0.899101 13.11188803,0 0,0.899101 0.899101,0 z M 15,7.507492 l -14.98501499,0 0,-0.914086 0.53946054,0 c 0,0 0,-0.374625 0,-0.374625 0,-0.599401 0.46453545,-1.078921 1.06393605,-1.078921 0,0 11.7782214,0 11.7782214,0 0.599401,0 1.063936,0.47952 1.063936,1.078921 0,0 0,0.374625 0,0.374625 l 0.539461,0 z M 8.4365634,2.997003 c 0,-0.299701 0.2397603,-0.539461 0.5394606,-0.539461 0,0 2.667333,0 2.667333,0 0.2997,0 0.53946,0.23976 0.53946,0.539461 0,0 0,1.723276 0,1.723276 l -3.7462536,0 c 0,0 0,-1.723276 0,-1.723276 z m -5.5894106,0 c 0,-0.299701 0.2247753,-0.539461 0.5394606,-0.539461 0,0 2.6523476,0 2.6523476,0 0.3146854,0 0.5544456,0.23976 0.5544456,0.539461 0,0 0,1.723276 0,1.723276 l -3.7462538,0 c 0,0 0,-1.723276 0,-1.723276 z"
                fill="#F89100"
                class="svgstore-item"
        ></path>
    </symbol>
    <symbol id="electronic-lock" viewBox="0 0 16 16" preserveAspectRatio="xMidYMid">
        <path
                d="M13.516,3.436l2.111,2.112c0.498,0.498,0.498,1.313,0,1.812l-8.268,8.267c-0.498,0.499-1.313,0.499-1.811,0l-2.112-2.111l0.837-0.837l2.111,2.111c0.037,0.036,0.102,0.036,0.137,0l8.269-8.268c0.036-0.035,0.036-0.101,0-0.137l-2.112-2.111L13.516,3.436z M1.391,9.794l-0.18-0.179c-0.035-0.036-0.035-0.102,0-0.137l8.268-8.268c0.036-0.036,0.102-0.036,0.137,0L9.794,1.39l0.837-0.837l-0.178-0.18c-0.498-0.498-1.313-0.498-1.812,0L0.374,8.642c-0.498,0.497-0.498,1.313,0,1.811l0.179,0.179L1.391,9.794z M11.05,0.971L0.971,11.05l2.047,2.046L13.097,3.018L11.05,0.971z"
                fill="#F89100"
                class="svgstore-item"
        ></path>
    </symbol>
    <symbol id="fan" viewBox="0 0 16 16" preserveAspectRatio="xMidYMid">
        <path
                d="M6.595,6.79c-0.468-0.718-1.94-2.38-1.94-3.37c0-1.873,2.099-2.336,3.303-2.35c2.911-0.03,4.207,3.217,2.357,3.688C9.104,5.066,8.643,5.627,8.46,6.188C8.307,6.145,8.146,6.119,7.979,6.119C7.418,6.119,6.919,6.383,6.595,6.79z M6.45,8.775C6.366,8.631,6.308,8.479,6.269,8.324C5.692,8.447,4.977,8.327,4.104,7.434C2.771,6.067,0.607,8.814,2.09,11.319c0.612,1.036,2.063,2.622,3.685,1.686c0.858-0.495,1.561-2.602,1.949-3.365C7.208,9.563,6.73,9.262,6.45,8.775z M9.516,8.771c-0.084,0.145-0.186,0.271-0.3,0.383c0.394,0.438,0.647,1.118,0.31,2.32c-0.516,1.838,2.944,2.338,4.373-0.197c0.591-1.05,1.238-3.1-0.383-4.035c-0.857-0.496-3.033-0.051-3.89-0.006C9.817,7.723,9.796,8.286,9.516,8.771z M8.634,7.889c0-0.361-0.293-0.656-0.655-0.656c-0.361,0-0.654,0.295-0.654,0.656s0.293,0.654,0.654,0.654C8.341,8.543,8.634,8.25,8.634,7.889z M9.486,7.889c0,0.832-0.675,1.506-1.508,1.506c-0.832,0-1.507-0.674-1.507-1.506c0-0.833,0.675-1.508,1.507-1.508C8.812,6.381,9.486,7.056,9.486,7.889z M8.962,7.889c0-0.543-0.441-0.983-0.983-0.983c-0.541,0-0.982,0.44-0.982,0.983c0,0.541,0.441,0.982,0.982,0.982C8.521,8.871,8.962,8.43,8.962,7.889z M16,8c0,4.419-3.581,8-8,8c-4.418,0-8-3.581-8-8c0-4.418,3.582-8,8-8C12.419,0,16,3.582,16,8z M15.407,8c0-4.084-3.322-7.407-7.407-7.407C3.916,0.593,0.593,3.916,0.593,8c0,4.085,3.323,7.407,7.407,7.407C12.085,15.407,15.407,12.085,15.407,8z"
                fill="#F89100"
                class="svgstore-item"
        ></path>
    </symbol>
    <symbol id="fax" viewBox="0 0 16 16" preserveAspectRatio="xMidYMid">
        <path
                d="M6.549,11.434V16h6.408v-4.566H6.549z M12.364,15.406H7.142v-3.38h5.223V15.406z M7.676,13.531v-0.594h4.153v0.594H7.676z M7.676,14.718v-0.594h4.153v0.594H7.676z M6.549,0v4.804h6.408V0H6.549z M12.364,4.211H7.142V0.594h5.223V4.211z M14.985,5.438H3.559v7.563h2.039v-2.541h8.31v2.541h1.078c0.56,0,1.015-0.454,1.015-1.014V6.453C16,5.894,15.545,5.438,14.985,5.438z M13.921,7.955h-2.988V6.941h2.988V7.955z M2.966,14.138c0,0.326-0.267,0.594-0.593,0.594h-1.78C0.267,14.731,0,14.464,0,14.138V4.35c0-0.326,0.267-0.594,0.593-0.594h1.78c0.326,0,0.593,0.268,0.593,0.594V14.138z"
                fill="#F89100"
                class="svgstore-item"
        ></path>
    </symbol>
    <symbol id="feature" viewBox="0 0 15 15.045" preserveAspectRatio="xMidYMid">
        <path d="M 0,7.53 C 0,3.375 3.36,0 7.5,0 11.64,0 15,3.375 15,7.53 15,11.67 11.64,15.045 7.5,15.045 3.36,15.045 0,11.67 0,7.53 Z" fill="#F89100" class="svgstore-item"></path>
    </symbol>
    <symbol id="fireplace" viewBox="0 0 16 16" preserveAspectRatio="xMidYMid">
        <path
                d="M5.969,10.739c-0.445,0-0.984,0.948-1.717,1.028c0.559-1.212-1.293-2.504,2.041-5.505C5.39,7.75,6.201,8.095,6.717,9.037c0.57-1.239,1.757-2.104,0.698-4C9.877,6.988,9.924,8.38,9.623,9.517c0.674-0.691,1.518-1.296,1.122-2.101c2.255,2.473,0.002,3.357,0.561,4.352c-0.732-0.065-0.706-0.843-1.15-0.843c-0.296,0-0.104,0.751-0.914,0.878c-0.846-0.106-0.788-1.378-1.302-1.379c-0.342,0-0.123,1.172-1.059,1.379C6.07,11.648,6.266,10.739,5.969,10.739z M2.666,9.719H0v2.845h2.666V9.719z M2.666,12.859H0V16h5.777v-2.667H2.666V12.859z M2.666,7.111c0,0,0.008-0.208,0.07-0.533H0v2.844h2.666V7.111z M4.848,3.438H0v2.844h2.804C3.012,5.466,3.537,4.231,4.848,3.438z M7.852,2.67V0H0v3.141h5.425C6.07,2.863,6.867,2.684,7.852,2.67z M13.333,13.333H6.074V16H16v-3.141h-2.667V13.333z M13.333,12.563H16V9.719h-2.667V12.563z M13.189,6.281H16V3.438h-4.878C12.439,4.231,12.975,5.466,13.189,6.281z M8.148,0v2.67c0.967,0.02,1.754,0.196,2.394,0.471H16V0H8.148z M13.333,7.111v2.311H16V6.578h-2.741C13.324,6.903,13.333,7.111,13.333,7.111z"
                fill="#F89100"
                class="svgstore-item"
        ></path>
    </symbol>
    <symbol id="hairdryer" viewBox="0 0 15 13.183376" preserveAspectRatio="xMidYMid">
        <path
                d="m 0.15385528,0.9230335 c 0,0 -0.24039888,1.532543 -0.12019944,2.794637 0.18029916,1.908166 0.46577283,2.824687 0.46577283,2.824687 l 0,0 c 0,0 1.11184483,-0.450748 1.56259273,-0.616022 0.3906482,-0.150249 1.4724431,-0.405673 1.9832907,-0.345574 0.9766205,0.105175 4.3722546,0.570948 4.8831023,0.646072 0.4056731,0.04508 0.6460719,0.856421 0.5108476,1.502493 -0.3756233,1.802992 -1.0968199,2.028366 -1.2170194,3.4857845 -0.1502493,1.742892 0.3305485,1.968266 0.3305485,1.968266 l 2.5842879,-0.01503 c 0,0 0.240399,-2.373939 0.390648,-3.2604105 0.420698,-2.464088 0.09015,-1.186969 0.345574,-2.343889 0.240398,-0.97662 1.322193,-1.03672 2.13354,-1.848066 0.676122,-0.661097 1.878116,-3.621008 -0.0601,-5.168576 -0.480798,-0.390648 -1.802992,-0.646072 -3.846382,-0.510848 -2.9749362,0.195324 -5.3639001,1.337219 -6.235346,1.502493 -0.5408975,0.105175 -0.8413961,0.0601 -1.3221939,-0.01503 -0.5709473,-0.120199 -1.277119,-0.450748 -1.5325428,-0.525872 -0.22537396,-0.0601 -0.85642102,-0.07512 -0.85642102,-0.07512 z m 3.60598322,4.657728 c 0,0 0,-4.026681 0,-4.026681 0.03005,-0.01503 0.0601,-0.01503 0.1051745,-0.01503 0.1953241,-0.03005 0.03005,-0.03005 0.3605983,-0.105174 0,0 0,4.161905 0,4.161905 -0.225374,-0.04507 -0.015025,0 -0.1802992,-0.01503 -0.075125,-0.01502 -0.1953241,0 -0.2854736,0 z m 7.5274895,-4.612653 c 1.036721,0 1.893142,0.856421 1.893142,1.893141 0,1.051745 -0.856421,1.893141 -1.893142,1.893141 -1.03672,0 -1.8931408,-0.841396 -1.8931408,-1.893141 0,-1.03672 0.8564208,-1.893141 1.8931408,-1.893141 z m -1.277119,1.893141 c 0,0.706172 0.570948,1.277119 1.277119,1.277119 0.706172,0 1.277119,-0.570947 1.277119,-1.277119 0,-0.691147 -0.570947,-1.277119 -1.277119,-1.277119 -0.706171,0 -1.277119,0.585972 -1.277119,1.277119 z m -2.4941381,6.040022 0.9465706,0 0.4958227,-1.848066 -0.9465706,0 z"
                fill="#F89100"
                class="svgstore-item"
        ></path>
    </symbol>
    <symbol id="hanger" viewBox="0 0 16 12.131" preserveAspectRatio="xMidYMid">
        <path
                d="M14.968,9.111l-4.236-3.438C9.999,5.079,9.029,4.751,8,4.751c-0.107,0-0.211,0.018-0.318,0.025C7.664,4.774,7.648,4.765,7.631,4.765c-0.027,0-0.671-0.018-0.671-1.195V2.224c0-0.525,0.428-0.953,0.953-0.953s0.953,0.428,0.953,0.953c0,0.352,0.284,0.637,0.636,0.637c0.351,0,0.635-0.285,0.635-0.637C10.137,0.998,9.139,0,7.913,0S5.689,0.998,5.689,2.224v1.346c0,0.71,0.171,1.227,0.418,1.601c-0.3,0.139-0.587,0.299-0.838,0.503L1.033,9.111c-1.084,0.877-1.123,1.594-0.965,2.041c0.159,0.447,0.641,0.979,2.035,0.979h11.794c1.394,0,1.876-0.531,2.034-0.979S16.051,9.988,14.968,9.111z M13.897,10.859H2.104c-0.519,0-0.674-0.436-0.271-0.762l4.237-3.438C6.577,6.247,7.263,6.021,8,6.021c0.738,0,1.424,0.227,1.932,0.639l4.236,3.438C14.571,10.424,14.416,10.859,13.897,10.859z"
                fill="#F89100"
                class="svgstore-item"
        ></path>
    </symbol>
    <symbol id="heater" viewBox="0 0 16 16" preserveAspectRatio="xMidYMid">
        <path
                fill="#F89100"
                d="M3.26,13.439c0,0.173-0.098,0.415-0.216,0.54l-0.7,0.732c-0.119,0.125-0.216,0.367-0.216,0.54v0.435 C2.127,15.859,1.986,16,1.813,16H1.446c-0.172,0-0.313-0.141-0.313-0.313v-0.435c0-0.173-0.098-0.415-0.216-0.54l-0.7-0.732 C0.098,13.854,0,13.612,0,13.439V2.56c0-0.172,0.098-0.416,0.217-0.54l0.699-0.731c0.119-0.125,0.217-0.368,0.217-0.54V0.313 C1.133,0.141,1.274,0,1.446,0h0.367c0.172,0,0.313,0.141,0.313,0.313v0.435c0,0.172,0.098,0.416,0.217,0.54L3.043,2.02 C3.162,2.144,3.26,2.387,3.26,2.56V13.439z M7.506,2.56c0-0.172-0.098-0.416-0.217-0.54L6.59,1.288 C6.471,1.164,6.373,0.92,6.373,0.748V0.313C6.373,0.141,6.232,0,6.06,0H5.692C5.52,0,5.379,0.141,5.379,0.313v0.435 c0,0.172-0.098,0.416-0.217,0.54L4.463,2.02C4.344,2.144,4.246,2.387,4.246,2.56v10.88c0,0.173,0.098,0.415,0.216,0.54l0.7,0.732 c0.119,0.125,0.216,0.367,0.216,0.54v0.435C5.379,15.859,5.52,16,5.692,16H6.06c0.172,0,0.313-0.141,0.313-0.313v-0.435 c0-0.173,0.098-0.415,0.216-0.54l0.7-0.732c0.119-0.125,0.216-0.367,0.216-0.54V2.56z M11.753,2.56c0-0.172-0.098-0.416-0.217-0.54 l-0.699-0.731c-0.119-0.125-0.217-0.368-0.217-0.54V0.313C10.62,0.141,10.479,0,10.307,0H9.939C9.768,0,9.626,0.141,9.626,0.313 v0.435c0,0.172-0.098,0.416-0.216,0.54L8.71,2.02C8.592,2.144,8.494,2.387,8.494,2.56v10.88c0,0.173,0.097,0.415,0.216,0.54 l0.7,0.732c0.119,0.125,0.216,0.367,0.216,0.54v0.435C9.626,15.859,9.768,16,9.939,16h0.367c0.173,0,0.313-0.141,0.313-0.313 v-0.435c0-0.173,0.098-0.415,0.217-0.54l0.699-0.732c0.119-0.125,0.217-0.367,0.217-0.54V2.56z M16,2.56 c0-0.172-0.098-0.416-0.217-0.54l-0.699-0.731c-0.119-0.125-0.217-0.368-0.217-0.54V0.313C14.867,0.141,14.727,0,14.554,0h-0.367 c-0.173,0-0.313,0.141-0.313,0.313v0.435c0,0.172-0.098,0.416-0.217,0.54L12.958,2.02c-0.119,0.125-0.217,0.368-0.217,0.54v10.88 c0,0.173,0.098,0.415,0.217,0.54l0.698,0.732c0.119,0.125,0.217,0.367,0.217,0.54v0.435c0,0.173,0.141,0.313,0.313,0.313h0.367 c0.173,0,0.313-0.141,0.313-0.313v-0.435c0-0.173,0.098-0.415,0.217-0.54l0.699-0.732C15.902,13.854,16,13.612,16,13.439V2.56z"
                class="svgstore-item"
        ></path>
    </symbol>
    <symbol id="heating" viewBox="0 0 16 16" preserveAspectRatio="xMidYMid">
        <path
                d="M15.111,2.37h-1.186v0.593h-0.593V2.247l-0.927-1.186V0h-0.813v1.062l-0.926,1.186 v0.716h-0.89V2.247L8.852,1.062V0H8.037v1.062L7.111,2.247v0.716H6.222V2.247L5.295,1.062V0H4.482v1.062L3.556,2.247v0.716H2.667 V2.247L1.74,1.062V0H0.926v1.062L0,2.247v0.716v1.186v7.703v1.186v0.716l0.926,1.186V16H1.74v-1.062l0.927-1.186v-0.716h0.889v0.716 l0.926,1.186V16h0.813v-1.062l0.927-1.186v-0.716h0.889v0.716l0.926,1.186V16h0.814v-1.062l0.926-1.186v-0.716h0.89v0.716 l0.926,1.186V16h0.813v-1.062l0.927-1.186v-0.716h0.593v0.593h1.186v-0.593H16v-1.186h-0.889v-0.593h-1.186v0.593h-0.593V4.148 h0.593v0.593h1.186V4.148H16V2.963h-0.889V2.37z M2.667,11.852V4.148h0.889v7.703H2.667z M6.222,11.852V4.148h0.889v7.703H6.222z M10.667,11.852h-0.89V4.148h0.89V11.852z M16,1.481v0.593h-2.074V1.481H16z M13.926,10.37H16v0.593h-2.074V10.37z"
                fill="#F89100"
                class="svgstore-item"
        ></path>
    </symbol>
    <symbol id="hypoallergenic-linen" viewBox="0 0 16 16" preserveAspectRatio="xMidYMid">
        <path
                fill="#F89100"
                d="M15.887,1.803c-0.352,1.492-0.958,2.923-1.694,4.246 c-0.045,0.08-0.692,0.464-1.155,0.433c0.148,0.278,0.782,0.161,0.938,0.148c-1.639,2.761-3.114,4.751-4.556,6.045 c-0.07,0.063-1.56,0.59-1.92,0.534c0.24,0.277,1.137,0.153,1.067,0.214c-0.214,0.182-0.189,0.154-0.351,0.278 c-0.087,0.067-1.607,0.264-1.917,0.132c0.426,0.297,1.075,0.342,1.016,0.373c-0.616,0.316-1.439,0.375-2.359,0.481 c-0.059,0.007-0.317,0.103-0.182,0.399C4.417,15,4.208,14.765,4.208,14.765C7.832,12.834,13.25,7.818,15.763,0 C16.108,0.321,16.009,1.284,15.887,1.803z M15.664,0c0,0-2.08,0.442-2.575,1.296c-0.084,0.145-0.171,0.286-0.261,0.424 c-0.034,0.053-0.189,0.619-0.201,1.354c-0.141-0.505-0.13-0.759-0.13-0.875C11.17,4.003,9.531,5.531,7.673,6.4 C7.33,6.778,6.891,8,6.923,8.852C6.438,8.25,6.163,7.84,6.353,7.313C5.502,7.902,5.872,7.549,5.24,8.178 c-0.063,0.062-0.802,2.072-0.552,3.479c-0.906-1.25-0.412-2.518-0.465-2.457c-0.208,0.239-0.39,0.485-0.538,0.739 c-0.25,0.426-0.536,1.521-0.657,2.521c-0.01,0.087-0.041,1.029-0.049,1.114c-0.094,0.092-0.281-0.012-0.558-0.438 c-0.031,0.514,0.289,0.869,0.57,1.076C2.058,14.817,1.066,15.417,0,16l1.111-0.197C1.111,15.803,11.605,10.494,15.664,0z M1.435,9.823C1.273,9.242,1.186,8.632,1.186,8c0-3.758,3.057-6.815,6.814-6.815c1.146,0,2.228,0.286,3.177,0.789 c0.123-0.156,0.246-0.314,0.366-0.478l0.231-0.315c0.02-0.039,0.04-0.074,0.061-0.107c0.016-0.023,0.029-0.047,0.044-0.07 C10.729,0.365,9.408,0,8,0C3.582,0,0,3.582,0,8c0,1.601,0.472,3.09,1.282,4.341L1.435,9.823z M14.994,7.234 c-0.064,0.108-0.13,0.213-0.195,0.319C14.809,7.701,14.814,7.85,14.814,8c0,3.603-2.81,6.56-6.353,6.799 c-0.586,0.472-1.274,0.784-2.112,1.029C6.881,15.939,7.434,16,8,16c4.419,0,8-3.582,8-8c0-0.699-0.09-1.377-0.259-2.024 L14.994,7.234z"
                class="svgstore-item"
        ></path>
    </symbol>
    <symbol id="iron" viewBox="0 0 16 9.961" preserveAspectRatio="xMidYMid">
        <path
                d="M15.71,9.158c-0.232-0.426-0.737-0.953-1.351-1.766C12.756,5.265,9.15,2.517,3.681,2.179V2.105c0-0.128-0.104-0.232-0.231-0.232H3.233C3.164,1.052,2.325,0.152,0.923,0c0.294,0.201,0.241,0.425,0.382,0.463C2.156,0.69,2.707,1.33,2.773,1.873h-0.02c-0.129,0-0.232,0.104-0.232,0.232v0.042c-0.06,0.009-0.213,0.048-0.29,0.214c-0.224,0.482-0.634,1.84-2.033,3.525C0.134,5.963,0.064,6.035,0.029,6.131C0.011,6.178,0,6.252,0,6.352c0,0.268,0,0.201,0,0.473C0,6.9,0.018,6.961,0.053,7.002c0.045,0.053,0.086,0.047,0.154,0.064c1.734,0.445,2.111,2.092,2.111,2.092S14.782,9.158,15.71,9.158z M4.186,3.664C5.082,3.6,7.061,3.736,8.174,4.191c1.411,0.578,2.681,2.227,1.236,1.98C8.128,5.951,4.568,6,3.439,6.01C3.105,6.014,2.867,5.545,2.956,5.422C3.262,5,3.498,4.518,3.676,4.07C3.725,3.945,4.044,3.674,4.186,3.664z M16,9.611v0.117c0,0.127-0.105,0.232-0.232,0.232H2.318c-0.127,0-0.232-0.105-0.232-0.232V9.611c0-0.127,0.105-0.23,0.232-0.23h13.449C15.895,9.381,16,9.484,16,9.611z M4.811,5.525V5.41c0-0.129,0.105-0.232,0.232-0.232h1.623c0.128,0,0.232,0.104,0.232,0.232v0.115c0,0.127-0.104,0.232-0.232,0.232H5.043C4.916,5.758,4.811,5.652,4.811,5.525z M11.415,4.305c-0.481-0.319-1.003-0.62-1.565-0.895V3.26h1.392L11.415,4.305z"
                fill="#F89100"
                class="svgstore-item"
        ></path>
    </symbol>
    <symbol id="ironing-board" viewBox="0 0 16 16" preserveAspectRatio="xMidYMid">
        <path
                d="M15.457,2H0.593C0.267,2,0,2.52,0,2.846v0.136C0,3.308,2.934,4,3.259,4H2.988C2.825,4,2.691,4.344,2.691,4.5S2.825,5,2.988,5h3.358c0.163,0,0.296-0.344,0.296-0.5S6.509,4,6.346,4h1.548l1.924,3.056l-7.792,6.925c-0.123,0.109-0.133,0.297-0.024,0.419c0.058,0.065,0.14,0.1,0.221,0.1c0.07,0,0.141-0.024,0.197-0.075l7.718-6.86l4.279,6.798c0.056,0.088,0.152,0.138,0.251,0.138c0.054,0,0.108-0.015,0.158-0.046c0.138-0.087,0.18-0.27,0.093-0.408l-4.332-6.881L14.146,4h1.311C15.783,4,16,3.418,16,3.092V2.846C16,2.52,15.783,2,15.457,2z M10.267,6.657L8.594,4h4.661L10.267,6.657z"
                fill="#F89100"
                class="svgstore-item"
        ></path>
    </symbol>
    <symbol id="karaoke" viewBox="0 0 16 16" preserveAspectRatio="xMidYMid">
        <path
                d="M10.692,9.09C10.18,8.578,9.86,7.946,9.729,7.285l-5.025,6.028l1.764,1.764l6.028-5.025C11.835,9.922,11.204,9.602,10.692,9.09z M9.01,11.311l-0.539-0.539l0.996-0.996l0.539,0.539L9.01,11.311z M15.174,8.592c-1.1,1.101-2.885,1.101-3.984,0c-1.101-1.101-1.101-2.885,0-3.984c1.1-1.102,2.884-1.102,3.984,0C16.275,5.707,16.275,7.491,15.174,8.592z M4.559,16l-0.778-0.777l0.405-1.401l1.774,1.774L4.559,16z M4.762,4.829C4.683,3.832,4.991,3.055,4.726,2.398C4.502,1.845,3.833,1.576,3.152,2.01v5.043H3.151c-0.01,0.499-0.375,1.055-0.975,1.4C1.61,8.781,0.987,8.832,0.551,8.634c0.001,0.001,0.001,0.002,0.001,0.003C0.546,8.634,0.54,8.629,0.533,8.625c-0.175-0.084-0.319-0.206-0.414-0.37C-0.212,7.68,0.171,6.838,0.975,6.373c0.272-0.158,0.558-0.249,0.83-0.281C2.038,6.057,2.26,6.066,2.458,6.117l-0.387-0.08V0.121L2.262,0l0.89,0.383V0.58c0.036,0.142,0.163,0.331,0.546,0.475C3.774,1.08,4.25,1.242,4.332,1.285C5.832,2.09,4.993,2.881,4.762,4.829z M8.558,3.535C8.521,3.063,8.667,2.693,8.541,2.383C8.435,2.119,8.118,1.992,7.794,2.197v2.395l0,0c-0.006,0.236-0.179,0.5-0.463,0.664C7.063,5.412,6.767,5.436,6.56,5.342v0.002C6.558,5.342,6.555,5.34,6.551,5.338C6.468,5.298,6.4,5.24,6.355,5.162C6.198,4.889,6.379,4.489,6.761,4.269C6.89,4.194,7.026,4.15,7.156,4.135c0.109-0.016,0.215-0.012,0.31,0.014L7.281,4.109V1.303l0.092-0.059l0.422,0.182V1.52c0.018,0.068,0.078,0.157,0.26,0.225c0.035,0.013,0.262,0.09,0.3,0.11C9.066,2.236,8.667,2.612,8.558,3.535z"
                fill="#F89100"
                class="svgstore-item"
        ></path>
    </symbol>
    <symbol id="kettle" viewBox="0 0 12 16" preserveAspectRatio="xMidYMid">
        <path
                d="M9.236,1.068c0,0-7.213,0.643-7.522,0.643C1.769,1.59,1.673,1.523,2.198,1.266c1.283-0.632,1.96-1.053,3.297-1.215C6.768-0.104,7.896,0.051,9.236,1.068z M9.154,14.341H1.276c-0.36,0-0.985,0.851-0.985,1.659h9.924C10.215,16,10.071,14.341,9.154,14.341z M11.479,2.873V2.038c0-0.124-0.089-0.254-0.229-0.327L10.396,1.39c-0.076,0-0.14,0.039-0.183,0.095C10.585,1.769,11.067,2.219,11.479,2.873z M1.027,4.645c-0.402-0.98-1.154-1.406-1.01-2.291c0.369,0,1.587-0.321,1.587-0.321L9.483,1.39c0,0,2.517,1.257,2.517,4.55c0,3.291-2.188,5.94-2.188,5.94v1.498c0,0.354-0.296,0.643-0.657,0.643H1.276c-0.36,0-0.656-0.289-0.656-0.643c0,0-0.317-2.741,0.106-5.521C0.904,6.689,1.307,5.326,1.027,4.645z M9.265,6.369c0.152,1.177,0.519,3.455,0.519,3.455c0,0.313,0.161,0.354,0.357,0.091c0,0,0.874-1.935,0.874-3.546c0-1.655-1.133-2.482-1.133-2.482C9.486,3.53,9.065,4.845,9.265,6.369z M6.07,5.063L6.038,5.725h0.717c0.147,0,0.267,0.117,0.267,0.26c0,0.145-0.119,0.262-0.267,0.262H6.012L5.931,7.912h0.824c0.147,0,0.267,0.117,0.267,0.261c0,0.145-0.119,0.261-0.267,0.261H5.906l-0.082,1.667h0.931c0.147,0,0.267,0.116,0.267,0.261c0,0.144-0.119,0.261-0.267,0.261H5.8L5.766,11.32c0,0.504,0.417,0.912,0.934,0.912c0.514,0,0.932-0.408,0.932-0.912L7.327,5.063c0-0.504-0.114-0.913-0.628-0.913C6.183,4.15,6.07,4.56,6.07,5.063z M11.178,12.366h-1.062v0.633h1.062c0.179,0,0.323-0.142,0.323-0.316S11.356,12.366,11.178,12.366z"
                fill="#F89100"
                class="svgstore-item"
        ></path>
    </symbol>
    <symbol id="kitchen-stove" viewBox="0 0 16 15.947" preserveAspectRatio="xMidYMid">
        <path
                d="M0,4.16v11.787h16V4.16H0z M14.82,14.084H1.182V6.021H14.82V14.084z M16,3.863V0H0v3.863H16z M12.863,1.064c0.492,0,0.892,0.399,0.892,0.892s-0.399,0.892-0.892,0.892s-0.891-0.399-0.891-0.892S12.371,1.064,12.863,1.064z M6.515,1.361h2.972v1.189H6.515V1.361z M3.137,1.064c0.492,0,0.892,0.399,0.892,0.892S3.629,2.848,3.137,2.848S2.246,2.448,2.246,1.956S2.645,1.064,3.137,1.064z M12.863,2.551c-0.327,0-0.594-0.267-0.594-0.595s0.267-0.595,0.594-0.595c0.328,0,0.595,0.267,0.595,0.595S13.191,2.551,12.863,2.551z M3.137,2.551c-0.327,0-0.594-0.267-0.594-0.595S2.81,1.361,3.137,1.361c0.328,0,0.595,0.267,0.595,0.595S3.465,2.551,3.137,2.551z M7.969,12.975c2.016-2.691-2.819-3.703-0.184-5.496C6.411,9.553,10.992,9.609,7.969,12.975z M10.214,7.479c-2.637,1.793,2.198,2.805,0.183,5.496C13.42,9.609,8.839,9.553,10.214,7.479z M5.357,7.479c-2.636,1.793,2.199,2.805,0.184,5.496C8.564,9.609,3.983,9.553,5.357,7.479z"
                fill="#F89100"
                class="svgstore-item"
        ></path>
    </symbol>
    <symbol id="lamp" viewBox="0 0 14.045 16" preserveAspectRatio="xMidYMid">
        <path
                d="M9.934,6.059c-0.378-0.725-0.728-2.51-0.728-2.51H4.839c-0.341,1.499-0.282,1.657-0.728,2.51C3.492,7.248,2.777,7.836,2.777,9.277c0,2.346,1.9,4.246,4.245,4.246s4.245-1.9,4.245-4.246C11.268,7.836,10.553,7.248,9.934,6.059z M7.022,13.021c-2.063,0-3.743-1.68-3.743-3.744c0-0.902,0.311-1.395,0.742-2.079c0.167-0.265,0.355-0.563,0.535-0.907C4.92,5.593,4.982,5.293,5.133,4.567c0.031-0.149,0.066-0.319,0.109-0.517h3.557c0.13,0.596,0.394,1.671,0.689,2.24c0.18,0.344,0.368,0.643,0.535,0.908c0.431,0.684,0.742,1.176,0.742,2.078C10.766,11.342,9.087,13.021,7.022,13.021z M9.206,3.064H8.936H5.109H4.839L5.21,0.719c0.01-0.148,0.138-0.27,0.286-0.27h0.559l0.057-0.19C6.154,0.116,6.311,0,6.458,0h1.129c0.147,0,0.304,0.116,0.347,0.259l0.057,0.19h0.559c0.147,0,0.276,0.121,0.287,0.27L9.206,3.064z M8.253,12.045c-0.378,0.168-0.795,0.266-1.235,0.266c-1.668,0-3.019-1.352-3.019-3.018c0-0.506,0.124-0.863,0.302-1.199c-0.027,0.16-0.045,0.33-0.045,0.52c0,1.92,1.557,3.475,3.475,3.475C7.908,12.088,8.081,12.07,8.253,12.045z M7.398,15.623C7.398,15.832,7.23,16,7.022,16l0,0c-0.208,0-0.376-0.168-0.376-0.377v-1.254c0-0.207,0.168-0.375,0.376-0.375l0,0c0.208,0,0.376,0.168,0.376,0.375V15.623z M0.377,9.354C0.168,9.354,0,9.186,0,8.979l0,0C0,8.77,0.168,8.602,0.377,8.602H1.63c0.208,0,0.376,0.168,0.376,0.377l0,0c0,0.207-0.168,0.375-0.376,0.375H0.377z M12.414,9.354c-0.207,0-0.376-0.168-0.376-0.375l0,0c0-0.209,0.169-0.377,0.376-0.377h1.255c0.207,0,0.376,0.168,0.376,0.377l0,0c0,0.207-0.169,0.375-0.376,0.375H12.414z M2.057,4.543c-0.146-0.146-0.146-0.385,0-0.531l0,0c0.146-0.146,0.385-0.146,0.532,0l0.887,0.887c0.146,0.146,0.146,0.385,0,0.532l0,0c-0.147,0.147-0.386,0.147-0.532,0L2.057,4.543z M10.569,13.057c-0.147-0.148-0.147-0.385,0-0.533l0,0c0.147-0.146,0.386-0.146,0.532,0l0.887,0.889c0.146,0.146,0.146,0.385,0,0.531l0,0c-0.147,0.146-0.386,0.146-0.532,0L10.569,13.057z M11.456,4.012c0.146-0.146,0.385-0.146,0.532,0l0,0c0.146,0.146,0.146,0.385,0,0.531l-0.887,0.888c-0.146,0.147-0.385,0.147-0.532,0l0,0c-0.147-0.147-0.147-0.386,0-0.532L11.456,4.012z M2.943,12.523c0.146-0.146,0.385-0.146,0.531,0l0,0c0.147,0.146,0.147,0.385,0,0.533l-0.886,0.887c-0.147,0.146-0.386,0.146-0.532,0l0,0c-0.146-0.146-0.146-0.385,0-0.531L2.943,12.523z"
                fill="#F89100"
                class="svgstore-item"
        ></path>
    </symbol>
    <symbol id="laptop" viewBox="0 0 16 11.952" preserveAspectRatio="xMidYMid">
        <path
                d="M14.849,0H1.15C1.012,0,0.896,0.114,0.896,0.255v9.05h14.206v-9.05C15.103,0.114,14.988,0,14.849,0z M14.214,8.416H1.785V0.89h12.429V8.416z M15.111,9.878H0.889H0v1.186c0,0.488,0.4,0.889,0.889,0.889h14.223c0.489,0,0.889-0.4,0.889-0.889V9.878H15.111z M2.378,11.211H0.896v-0.593h1.481V11.211z M3.267,11.211H2.971v-0.593h0.296V11.211z"
                fill="#F89100"
                class="svgstore-item"
        ></path>
    </symbol>
    <symbol id="microwave" viewBox="0 0 16 11" preserveAspectRatio="xMidYMid">
        <path
                d="M14.211,8.512c-0.412,0-0.746-0.344-0.746-0.765c0-0.423,0.334-0.764,0.746-0.764c0.411,0,0.745,0.341,0.745,0.764C14.956,8.168,14.622,8.512,14.211,8.512z M16,0v11h-3.578V0H16z M15.279,7.747c0-0.604-0.479-1.095-1.068-1.095s-1.068,0.49-1.068,1.095s0.479,1.095,1.068,1.095S15.279,8.352,15.279,7.747z M15.478,0.891h-2.534v1.248h2.534V0.891z M12.124,0v11H0V0H12.124z M11.229,2.139H0.895v6.723h10.335V2.139z M5.887,3.208C3.742,4.703,7.676,5.546,6.035,7.791C8.495,4.985,4.769,4.938,5.887,3.208z M8.011,7.791c1.64-2.245-2.294-3.088-0.149-4.583C6.744,4.938,10.471,4.985,8.011,7.791z M4.061,7.791c1.641-2.245-2.293-3.088-0.148-4.583C2.793,4.938,6.521,4.985,4.061,7.791z"
                fill="#F89100"
                class="svgstore-item"
        ></path>
    </symbol>
    <symbol id="mini-bar" viewBox="0 0 16 16" preserveAspectRatio="xMidYMid">
        <path
                d="M6.359,6.264c0.344,0.82,1.256,2.309,1.256,5.958v2.769c0,0.615-0.43,1.046-0.98,1.046c0,0-0.594,0-1.317,0c-0.723,0-1.325,0-1.325,0C3.441,16.036,3,15.605,3,14.99v-2.769c0-3.649,0.918-5.138,1.262-5.958c0.225-0.538,0.305-2.201,0.33-3.547C4.457,2.679,4.357,2.56,4.357,2.414V0.34c0-0.177,0.144-0.321,0.32-0.321h1.26c0.177,0,0.32,0.144,0.32,0.321v2.073c0,0.143-0.096,0.26-0.225,0.301C6.057,4.061,6.134,5.725,6.359,6.264z M11.311,15.223c0.026,0.168-0.459-1.366,0-2.715c0.205-0.6,1.722-1.104,1.67-2.172c-0.062-1.243-0.668-2.715-0.668-2.715H9.641c0,0-0.607,1.472-0.668,2.715c-0.052,1.067,1.465,1.572,1.67,2.172c0.456,1.348-0.027,2.885,0,2.715c-0.055,0.342-0.364,0.502-0.594,0.577c-0.432,0.103-0.731,0.1-1.058,0.236h3.971c-0.325-0.137-0.58-0.13-1.012-0.232C11.72,15.728,11.367,15.564,11.311,15.223z"
                fill="#F89100"
                class="svgstore-item"
        ></path>
    </symbol>
    <symbol id="mirror" viewBox="0 0 14 16" preserveAspectRatio="xMidYMid">
        <path
                d="M6.99,1.618C4.314,1.618,2.146,4.475,2.146,8s2.168,6.381,4.844,6.381c2.675,0,4.844-2.855,4.844-6.381S9.665,1.618,6.99,1.618z M6.99,13.76c-2.319,0-4.205-2.584-4.205-5.76S4.671,2.24,6.99,2.24S11.195,4.824,11.195,8S9.31,13.76,6.99,13.76z M13.934,8.825c-0.267,0.714-0.786,0.558-1.145,1.089s-0.085,0.574,0.116,0.553c0.088-0.01,0.156,0.031,0.13,0.121c-0.05,0.172-0.173,0.439-0.46,0.508c-0.195,0.045-0.456,0.018-0.63-0.102c0.338-0.91,0.528-1.924,0.528-2.994s-0.19-2.085-0.528-2.994c0.174-0.12,0.435-0.147,0.63-0.102c0.287,0.068,0.41,0.335,0.46,0.508c0.026,0.09-0.042,0.131-0.13,0.121c-0.201-0.022-0.475,0.021-0.116,0.552c0.358,0.532,0.878,0.376,1.145,1.089c0.134,0.361,0.051,0.582-0.114,0.707c0.02,0.041,0.034,0.086,0.034,0.135c0,0.039-0.011,0.076-0.023,0.111C13.987,8.255,14.064,8.473,13.934,8.825z M2.038,11.004c-0.173,0.111-0.425,0.137-0.614,0.092c-0.286-0.068-0.408-0.336-0.459-0.508c-0.025-0.09,0.041-0.131,0.13-0.121c0.2,0.021,0.476-0.021,0.116-0.553C0.853,9.383,0.334,9.539,0.067,8.825c-0.132-0.353-0.055-0.57,0.103-0.698C0.156,8.092,0.147,8.055,0.147,8.016c0-0.049,0.014-0.094,0.034-0.135C0.016,7.756-0.067,7.535,0.067,7.174c0.267-0.713,0.785-0.557,1.144-1.089c0.359-0.53,0.084-0.574-0.116-0.552c-0.089,0.01-0.155-0.031-0.13-0.121c0.051-0.173,0.173-0.439,0.459-0.508c0.189-0.045,0.441-0.02,0.614,0.091C1.698,5.906,1.507,6.926,1.507,8S1.698,10.094,2.038,11.004z M3.975,2.076c-0.178-0.159-0.215-0.47-0.16-0.688c0.07-0.279,0.344-0.399,0.521-0.449C4.428,0.915,4.47,0.98,4.459,1.066C4.436,1.263,4.481,1.529,5.025,1.181C5.571,0.83,5.412,0.324,6.144,0.064c0.37-0.131,0.595-0.049,0.725,0.111c0.042-0.02,0.088-0.033,0.138-0.033c0.041,0,0.079,0.01,0.115,0.023c0.131-0.154,0.354-0.229,0.715-0.102c0.732,0.26,0.572,0.766,1.119,1.116c0.544,0.349,0.589,0.082,0.565-0.114C9.51,0.98,9.553,0.915,9.646,0.939c0.177,0.05,0.45,0.17,0.52,0.449c0.055,0.218,0.018,0.528-0.159,0.688C9.989,2.09,9.973,2.101,9.956,2.113C9.1,1.407,8.082,0.996,6.99,0.996S4.881,1.407,4.025,2.113C4.008,2.101,3.99,2.09,3.975,2.076z M10.006,13.924c0.177,0.158,0.214,0.469,0.159,0.688c-0.069,0.279-0.343,0.398-0.52,0.449c-0.093,0.023-0.136-0.041-0.125-0.127c0.023-0.197-0.021-0.465-0.565-0.115c-0.547,0.352-0.387,0.857-1.119,1.115c-0.36,0.129-0.584,0.055-0.715-0.1c-0.036,0.014-0.074,0.021-0.115,0.021c-0.05,0-0.096-0.012-0.138-0.031c-0.13,0.16-0.354,0.242-0.725,0.109c-0.731-0.258-0.572-0.764-1.118-1.115c-0.544-0.35-0.59-0.082-0.566,0.115c0.011,0.086-0.031,0.15-0.123,0.127c-0.178-0.051-0.451-0.17-0.521-0.449c-0.055-0.219-0.018-0.529,0.16-0.688c0.016-0.014,0.033-0.025,0.051-0.037c0.855,0.705,1.873,1.117,2.965,1.117s2.109-0.412,2.966-1.117C9.973,13.898,9.989,13.91,10.006,13.924z M8.181,4.898L8.97,4.787L3.952,9.678l0.114-0.77L8.181,4.898z M6.693,3.67l0.789-0.11l-3.212,3.13l0.113-0.77L6.693,3.67z"
                fill="#F89100"
                class="svgstore-item"
        ></path>
    </symbol>
    <symbol id="multimedia" viewBox="0 0 16 16" preserveAspectRatio="xMidYMid">
        <path d="M0,8c0-4.418,3.582-8,8-8c4.419,0,8,3.582,8,8 s-3.581,8-8,8C3.582,16,0,12.418,0,8z M5.668,11.848L12.333,8L5.668,4.152V11.848z" fill="#F89100" class="svgstore-item"></path>
    </symbol>
    <symbol id="newspaper" viewBox="0 0 16 16" preserveAspectRatio="xMidYMid">
        <path
                d="M12.333,2.963V0H0v13.926C0,15.066,0.834,16,1.852,16h12.334c-0.006,0-0.012-0.002-0.019-0.002C15.177,15.986,16,15.06,16,13.926V2.963H12.333z M1.852,15.407c-0.693,0-1.259-0.664-1.259-1.481V0.593H11.74v13.333c0,0.548,0.152,1.058,0.413,1.481H1.852z M1.481,1.481h9.481v1.777H1.481V1.481z M5.037,10.963H1.481V5.926h3.556V10.963z M1.481,4.444h9.481v0.593H1.481V4.444z M1.481,11.852h9.481v0.593H1.481V11.852z M5.629,5.926h5.334v0.593H5.629V5.926z M5.629,7.407h5.334V8H5.629V7.407z M5.629,8.889h5.334v0.593H5.629V8.889z M8,10.37v0.593H5.629V10.37H8z"
                fill="#F89100"
                class="svgstore-item"
        ></path>
    </symbol>
    <symbol id="no-icon" viewBox="0 0 16 16" preserveAspectRatio="xMidYMid">
        <path
                d="M15.632,5.599C15.87,6.357,15.999,7.163,16,8c0,4.419-3.583,8-8,8 c-4.418,0-8-3.581-8-8c0-4.418,3.582-8,8-8c1.956,0,3.747,0.705,5.137,1.871L11.998,3.01C10.901,2.13,9.512,1.6,8,1.6 C4.471,1.6,1.6,4.471,1.6,8c0,3.529,2.871,6.4,6.4,6.4c3.528,0,6.399-2.871,6.399-6.4c0-0.366-0.038-0.722-0.097-1.072L15.632,5.599 z M15.717,3.817l-1.414-1.414L7.514,9.19L3.837,5.514L2.423,6.929l5.091,5.091l1.414-1.413v-0.001L15.717,3.817z"
                fill="#F89100"
                class="svgstore-item"
        ></path>
    </symbol>
    <symbol id="no-smoking" viewBox="0 0 16 16" preserveAspectRatio="xMidYMid">
        <path
                d="M8,0C3.582,0,0,3.581,0,8c0,4.418,3.582,8,8,8c4.418,0,8-3.582,8-8C16,3.581,12.418,0,8,0z M14.814,8 c0,1.654-0.594,3.172-1.578,4.354l-1.842-1.842h0.206V8.51H9.393L3.646,2.763C4.827,1.778,6.345,1.185,8,1.185 C11.758,1.185,14.814,4.242,14.814,8z M1.185,8c0-1.678,0.612-3.213,1.621-4.401L7.717,8.51H2.963v2.002h6.756l2.682,2.682 c-1.188,1.009-2.723,1.621-4.4,1.621C4.242,14.814,1.185,11.757,1.185,8z M12.212,8.51h1.095v2.002h-1.095V8.51z M9.504,2.699 c-0.225,1.818,1.577,2.094,2.708,2.761c0.852,0.501,1.581,1.318,0.698,2.646l-0.058,0.115C13.63,6.162,8.286,6.217,9.504,2.699z"
                fill="#F89100"
                class="svgstore-item"
        ></path>
    </symbol>
    <symbol id="phone" viewBox="0 0 15 10.314952" preserveAspectRatio="xMidYMid">
        <path
                d="m 9.722148,2.642549 c 0,-1.00597 -0.9909561,-0.780753 -0.9909561,-0.780753 l 0,0 c 0,0 -2.4924048,0 -2.4924048,0 -1.0059706,0 -0.9609271,0.705681 -0.9609271,0.705681 l 0,0 c 0,0 0,0.330319 0,0.330319 -0.7957678,0.300289 -1.5915356,0.765738 -1.9969267,1.546492 0,0 -1.4263762,3.51339 -1.4113617,3.2131 0,0 0,1.681622 0,1.681622 l 0,0 c 0,0 -0.075073,0.975942 0.9909561,0.975942 0,0 9.2339093,0 9.2339093,0 l 0,0 c 0,0 1.035999,-0.03003 1.035999,-0.975942 0,0 0,-1.60655 0,-1.60655 l 0,0 c 0,0 -1.501448,-3.273158 -1.501448,-3.273158 C 11.088466,3.64852 10.367771,3.168056 9.7071335,2.867767 c 0,0 0.015015,-0.225218 0.015015,-0.225218 z M 7.4849895,3.453332 c 1.8167529,0 3.2881725,0.975941 3.2881725,2.1771 0,1.201159 -1.4714196,2.177101 -3.2881725,2.177101 -1.8017384,0 -3.273158,-0.975942 -3.273158,-2.177101 0,-1.201159 1.4714196,-2.1771 3.273158,-2.1771 z M 4.1217445,2.026955 c 0,0 1.4564052,-0.690666 3.0179118,-0.690666 0,0 0.7206954,0 0.7206954,0 l 0,0 c 0,0 2.0719991,0 3.0329263,0.795768 0.09009,0.07507 0.07507,-0.06006 0.01501,0.120116 -0.165159,0.405391 -0.27026,0.555536 -0.27026,0.555536 l 3.528404,1.786724 0.660637,-1.351304 c 0,0 0.660638,-1.111072 -0.600579,-1.756695 0,0 -1.036,-0.570551 -1.036,-0.570551 l 0,0 C 13.19049,0.915883 11.779129,0 7.7552463,0 c 0,0 -0.615594,0 -0.615594,0 C 3.9565812,0 1.8095096,0.915883 1.8095096,0.915883 l 0,0 c 0,0 -1.03599963,0.570551 -1.03599963,0.570551 C -0.4877069,2.132057 0.17293051,3.243129 0.17293051,3.243129 L 0.83356791,4.594433 4.3619723,2.807709 c 0,0 -0.1801738,-0.330319 -0.2702607,-0.585565 C 3.9866102,2.026955 4.0616826,2.071999 4.1217406,2.026955 Z m 3.393274,2.567478 c 1.0359996,0 1.8768108,0.450434 1.8768108,0.990956 0,0.555536 -0.8408112,0.990956 -1.8768108,0.990956 -1.0209851,0 -1.8617963,-0.43542 -1.8617963,-0.990956 0,-0.540522 0.8408112,-0.990956 1.8617963,-0.990956 z"
                fill="#F89100"
                class="svgstore-item"
        ></path>
    </symbol>
    <symbol id="pillows-menu" viewBox="0 0 16 16" preserveAspectRatio="xMidYMid">
        <path
                d="M14.68,12.103c0.033,0.12,0.011,0.206-0.051,0.268c-0.062,0.063-0.183,0.141-0.321,0.104c-0.436-0.15,0.043-0.143-0.568-0.068c0.001-0.004,0.002-0.008,0.002-0.012c0.164-0.925,0.35-1.974,0.35-3.093c0-1.12-0.186-2.168-0.35-3.093c-0.171-0.971-0.333-1.887-0.163-2.379l0.028-0.083l0.013-0.087c0.058-0.421-0.059-0.8-0.325-1.065c-0.215-0.216-0.511-0.334-0.831-0.334c-0.107,0-0.215,0.013-0.32,0.041L12.106,2.31l-0.035,0.012c-0.139,0.048-0.324,0.072-0.552,0.072c-0.497,0-1.144-0.114-1.828-0.235C8.767,1.995,7.718,1.81,6.599,1.81c-0.672,0-1.317,0.067-1.927,0.156c-0.063-0.02-0.125-0.003-0.15,0.022C4.17,2.042,3.83,2.102,3.506,2.159C3.501,2.16,3.498,2.16,3.494,2.161c0.074-0.611,0.38-1.149,0.229-1.585c0-0.144,0.059-0.229,0.121-0.291C3.905,0.223,3.991,0.2,4.095,0.204c1.274,0.44,3.109-0.166,5.466-0.166c2.357,0,4.787,1.499,6.062,1.059c0.125-0.032,0.238-0.002,0.301,0.06c0.062,0.062,0.091,0.168,0.071,0.312c-0.44,1.274-0.133,2.514-0.133,4.871S14.239,10.829,14.68,12.103z M12.437,14.768c0.034,0.12,0.012,0.205-0.051,0.268c-0.062,0.062-0.183,0.14-0.321,0.104c-0.159-0.055-0.327-0.084-0.504-0.093C10.323,14.98,8.661,15.9,6.599,15.9c-2.357,0-4.192-1.201-5.466-0.762c-0.139,0.036-0.26,0-0.321-0.062c-0.062-0.062-0.098-0.189-0.05-0.31C1.201,13.493,0,11.659,0,9.302C0,6.945,1.201,5.11,0.761,3.835c0-0.144,0.059-0.229,0.12-0.291C0.943,3.482,1.029,3.46,1.133,3.464c1.274,0.44,3.109-0.761,5.466-0.761c1.634,0,2.403,0.439,3.522,0.646C10.31,3.384,9.916,4.201,8.98,4.501c1.19,0,2.529-0.939,2.641-0.949c0.155-0.012,0.303-0.041,0.443-0.089c0.125-0.032,0.238-0.002,0.301,0.06c0.062,0.062,0.091,0.168,0.071,0.312c-0.44,1.274,0.761,3.109,0.761,5.466C13.197,11.659,11.996,13.493,12.437,14.768z M2.884,9.24c0-3.11-1.343-4.955-1.343-4.955c0.608,1.562,0.88,3.16,0.873,5.017c-0.007,1.939-0.32,3.54-0.873,4.976C1.776,13.938,2.884,12.351,2.884,9.24z"
                fill="#F89100"
                class="svgstore-item"
        ></path>
    </symbol>
    <symbol id="poof" viewBox="0 0 16 15.359" preserveAspectRatio="xMidYMid">
        <path
                d="M5.12,15.359H2.88V14.08h2.24V15.359z M13.12,14.08h-2.24v1.279h2.24V14.08z M1.6,11.84c0,0.88,0.721,1.6,1.601,1.6h9.6c0.88,0,1.601-0.72,1.601-1.6v-6.4H1.6V11.84z M16,2.24c0-0.881-0.72-1.601-1.6-1.601c0,0-1.921-0.64-6.428-0.64S1.6,0.64,1.6,0.64C0.721,0.64,0,1.359,0,2.24v0.959C0,4.08,0.721,4.8,1.6,4.8H14.4c0.88,0,1.6-0.72,1.6-1.601V2.24z"
                fill="#F89100"
                class="svgstore-item"
        ></path>
    </symbol>
    <symbol id="private-room-entrance" viewBox="0 0 16 16" preserveAspectRatio="xMidYMid">
        <path
                fill="#F89100"
                d="M2,0v16h11V0H2z M11.222,14.223L6.777,12.74V3.259l4.444-1.481V14.223z M6.924,8 c0-0.253,0.206-0.459,0.459-0.459c0.254,0,1.315,0.206,1.315,0.459S7.638,8.459,7.383,8.459C7.13,8.459,6.924,8.253,6.924,8z"
                class="svgstore-item"
        ></path>
    </symbol>
    <symbol id="radio" viewBox="0 0 16 15.789" preserveAspectRatio="xMidYMid">
        <path
                d="M15.407,5.419H2.568V5.014l6.553-2.386l-0.05-0.136l3.84-1.398l0.112,0.309l0.629-0.229L13.226,0l-0.63,0.229l0.112,0.309L8.869,1.935l-0.05-0.136L2.348,4.153C2.244,4.068,2.119,4.012,1.976,4.012H1.481c-0.327,0-0.593,0.266-0.593,0.593v0.814H0.593C0.267,5.419,0,5.686,0,6.012v9.185c0,0.326,0.267,0.593,0.593,0.593h14.814c0.326,0,0.593-0.267,0.593-0.593V6.012C16,5.686,15.733,5.419,15.407,5.419z M1.186,7.197h13.629v1.777H1.186V7.197z M10.074,14.468H1.186v-0.593h8.889V14.468z M10.074,12.688H1.186v-0.593h8.889V12.688z M10.074,10.906H1.186v-0.592h8.889V10.906z M13.037,14.468c-1.146,0-2.074-0.929-2.074-2.074c0-1.145,0.929-2.073,2.074-2.073s2.074,0.929,2.074,2.073C15.111,13.539,14.183,14.468,13.037,14.468z M14.519,12.394c0,0.818-0.663,1.481-1.481,1.481s-1.481-0.663-1.481-1.481c0-0.817,0.663-1.481,1.481-1.481S14.519,11.576,14.519,12.394z"
                fill="#F89100"
                class="svgstore-item"
        ></path>
    </symbol>
    <symbol id="refrigerator" viewBox="0 0 16 16" preserveAspectRatio="xMidYMid">
        <path
                d="M11.773,0.02H4.294c-0.101,0-0.263,0.16-0.263,0.262v9.174H12V0.282C12,0.18,11.875,0.02,11.773,0.02z M5.479,8.668c0,0.145-0.098,0.264-0.219,0.264c-0.12,0-0.219-0.119-0.219-0.264v-1.05c0-0.145,0.099-1.313,0.219-1.313c0.121,0,0.219,1.169,0.219,1.313V8.668z M9.154,1.478H6.792V1.02h2.362V1.478z M4.031,9.719v6.038c0,0.102,0.162,0.263,0.263,0.263h7.443c0.103,0,0.263-0.161,0.263-0.263V9.719H4.031z M5.479,11.294c0,0.144-0.098,1.313-0.219,1.313c-0.12,0-0.219-1.169-0.219-1.313v-0.788c0-0.144,0.099-0.263,0.219-0.263c0.121,0,0.219,0.119,0.219,0.263V11.294z"
                fill="#F89100"
                class="svgstore-item"
        ></path>
    </symbol>
    <symbol id="room-2" viewBox="0 0 16 16" preserveAspectRatio="xMidYMid">
        <path
                d="M8,1.728l6.519,3.863v8.934H1.481V5.59L8,1.728 M8,0.005L0,4.746v11.26h16V4.746L8,0.005 L8,0.005z M4.55,8.866l0.511,0.77c0.133,0.2,0.244,0.378,0.363,0.585h0.022c0.118-0.215,0.237-0.399,0.363-0.592l0.496-0.763h0.711 l-1.222,1.733l1.252,1.852H6.305L5.78,11.643c-0.141-0.207-0.259-0.407-0.385-0.622H5.38c-0.119,0.215-0.244,0.407-0.378,0.622 L4.484,12.45H3.766l1.273-1.829L3.825,8.866H4.55z M7.594,12.45v-0.981l0.885-0.8c1.524-1.365,2.261-2.144,2.271-2.955 c0-0.565-0.33-1.013-1.13-1.013c-0.598,0-1.12,0.298-1.482,0.565L7.68,6.115C8.191,5.72,9.013,5.4,9.941,5.4 c1.578,0,2.432,0.917,2.432,2.175c0,1.163-0.832,2.091-1.846,2.987l-0.64,0.533v0.021h2.623v1.333H7.594z"
                fill="#F89100"
                class="svgstore-item"
        ></path>
    </symbol>
    <symbol id="room-3" viewBox="0 0 16 16" preserveAspectRatio="xMidYMid">
        <path
                d="M8,1.728l6.519,3.863v8.934H1.481V5.59L8,1.728 M8,0.005L0,4.746v11.26h16V4.746L8,0.005 L8,0.005z M4.55,8.866l0.511,0.77c0.133,0.2,0.244,0.378,0.363,0.585h0.022c0.118-0.215,0.237-0.399,0.363-0.592l0.496-0.763h0.711 l-1.222,1.733l1.252,1.852H6.305L5.78,11.643c-0.141-0.207-0.259-0.407-0.385-0.622H5.38c-0.119,0.215-0.244,0.407-0.378,0.622 L4.484,12.45H3.766l1.273-1.829L3.825,8.866H4.55z M7.872,10.861c0.289,0.16,0.949,0.426,1.611,0.426 c0.842,0,1.269-0.404,1.269-0.917c0-0.692-0.683-1.002-1.386-1.002H8.703V8.205h0.629c0.545,0,1.228-0.213,1.228-0.8 c0-0.416-0.331-0.725-1.024-0.725c-0.564,0-1.162,0.245-1.439,0.416L7.765,5.923C8.182,5.656,9.002,5.4,9.908,5.4 c1.473,0,2.294,0.778,2.294,1.728c0,0.736-0.417,1.323-1.269,1.611V8.76c0.831,0.149,1.503,0.778,1.503,1.696 c0,1.216-1.077,2.111-2.837,2.111c-0.896,0-1.653-0.234-2.059-0.479L7.872,10.861z"
                fill="#F89100"
                class="svgstore-item"
        ></path>
    </symbol>
    <symbol id="room-4" viewBox="0 0 16 16" preserveAspectRatio="xMidYMid">
        <path
                d="M8,1.728l6.519,3.863v8.934H1.481V5.59L8,1.728 M8,0.005L0,4.746v11.26h16V4.746L8,0.005 L8,0.005z M4.55,8.866l0.511,0.77c0.133,0.2,0.244,0.378,0.363,0.585h0.022c0.118-0.215,0.237-0.399,0.363-0.592l0.496-0.763h0.711 l-1.222,1.733l1.252,1.852H6.305L5.78,11.643c-0.141-0.207-0.259-0.407-0.385-0.622H5.38c-0.119,0.215-0.244,0.407-0.378,0.622 L4.484,12.45H3.766l1.273-1.829L3.825,8.866H4.55z M10.453,12.45v-1.653H7.381V9.741l2.613-4.224h1.994v4.063h0.821v1.216h-0.821 v1.653H10.453z M10.453,9.581V8.045c0-0.416,0.021-0.843,0.043-1.291h-0.033c-0.223,0.448-0.416,0.853-0.65,1.291L8.896,9.56 L8.885,9.581H10.453z"
                fill="#F89100"
                class="svgstore-item"
        ></path>
    </symbol>
    <symbol id="safe" viewBox="0 0 15 11.745" preserveAspectRatio="xMidYMid">
        <path
                d="m 0,0.93 c 0,0 0,9.375 0,9.375 0,0.51 0.42,0.945 0.945,0.945 0,0 13.125,0 13.125,0 0.51,0 0.93,-0.435 0.93,-0.945 0,0 0,-9.375 0,-9.375 C 15,0.42 14.58,0 14.07,0 14.07,0 0.945,0 0.945,0 0.42,0 0,0.42 0,0.93 Z m 0.945,0 13.125,0 0,9.375 -13.125,0 z m 0.465,8.805 12.18,0 0,-8.235 -12.18,0 z M 4.695,5.52 c 0,0 0,1.98 0,1.98 l -0.945,0 c 0,0 0,-1.995 0,-1.995 C 3.465,5.325 3.285,5.055 3.285,4.695 3.285,4.17 3.705,3.75 4.23,3.75 c 0.525,0 0.96,0.42 0.96,0.945 0,0.36 -0.21,0.66 -0.495,0.825 z m 4.68,-2.715 c 1.56,0 2.82,1.26 2.82,2.82 0,1.545 -1.26,2.805 -2.82,2.805 C 7.83,8.43 6.57,7.17 6.57,5.625 c 0,-1.56 1.26,-2.82 2.805,-2.82 z m 0,1.335 c 0.825,0 1.485,0.66 1.485,1.485 0,0.81 -0.66,1.485 -1.485,1.485 -0.825,0 -1.5,-0.675 -1.5,-1.485 0,-0.825 0.675,-1.485 1.5,-1.485 z m -7.5,7.605 2.805,0 0,-0.525 -2.805,0 z m 8.445,0 2.805,0 0,-0.525 -2.805,0 z"
                fill="#F89100"
                class="svgstore-item"
        ></path>
    </symbol>
    <symbol id="sauna" viewBox="0 0 15 16" preserveAspectRatio="xMidYMid">
        <path
                d="M1.643,10.225l2.35-5.443c-0.117-0.55,0.166-1.117,0.71-1.314c0.595-0.215,1.823,0.665,2.039,1.26l0.918,3.349L7.65,8.068c0,0-0.549,1.334-1.546,2.449C5.935,10.25,5.82,9.851,5.82,9.851L4.588,6.493L2.34,10.6c-0.129,0.245-0.378,0.386-0.637,0.386c-0.111,0-0.51-0.026-0.615-0.081C0.736,10.722,1.459,10.575,1.643,10.225z M4.37,3.113c0.86,0,1.557-0.697,1.557-1.557S5.23,0,4.37,0C3.511,0,2.813,0.697,2.813,1.557S3.511,3.113,4.37,3.113z M10.684,7.146c3.183-3.77-1.641-3.832-0.192-6.156C7.715,2.998,12.806,4.131,10.684,7.146z M13.76,8.385c3.486-3.34-1.64-3.832-0.193-6.156C11.457,4.598,15.882,5.369,13.76,8.385z M9.958,11.629H9.737l0.029,0.324c0,0-3.312,0.709-5.503-0.112c0.165-0.058,0.324-0.13,0.478-0.212H0.988C0.514,11.629,0,12.014,0,12.487c0,0.475,0.514,0.859,0.988,0.859h8.97c0.475,0,0.859-0.385,0.859-0.859C10.817,12.014,10.433,11.629,9.958,11.629z M13.89,15.017l-1.351-5.147c0,0-0.1-0.307-0.404-0.513c-0.304-0.206-0.793-0.185-0.793-0.185L9.478,8.87l0.189,2.02h1.316l1.913,4.375C13.071,15.72,13.506,16,13.966,16c0.137,0,0.275-0.024,0.41-0.076C14.966,15.697,14.116,15.607,13.89,15.017z"
                fill="#F89100"
                class="svgstore-item"
        ></path>
    </symbol>
    <symbol id="scales" viewBox="0 0 16 16" preserveAspectRatio="xMidYMid">
        <path
                d="M0,5.926h16v8.889C16,15.467,15.467,16,14.814,16H1.186C0.533,16,0,15.467,0,14.814V5.926z M16,1.186v4.148H0V1.186C0,0.533,0.533,0,1.186,0h13.629C15.467,0,16,0.533,16,1.186z M10.715,1.83c0.063,0.061,0.125,0.123,0.185,0.187C10.84,1.953,10.778,1.891,10.715,1.83z M5.102,2.016c0.06-0.063,0.121-0.125,0.185-0.186C5.223,1.891,5.162,1.951,5.102,2.016z M10.789,4.745c-0.001-0.002-0.004-0.004-0.004-0.005c0-0.077,0.856-0.215,1.183-0.266c-0.068-0.899-0.424-1.711-0.979-2.35c-0.263,0.193-0.965,0.7-1.019,0.646c-0.055-0.055,0.454-0.76,0.646-1.021c-0.639-0.564-1.451-0.922-2.35-0.982C8.217,1.09,8.077,1.955,8,1.955S7.783,1.09,7.734,0.768C6.835,0.828,6.022,1.186,5.384,1.75c0.192,0.261,0.701,0.966,0.647,1.021c-0.055,0.055-0.756-0.452-1.02-0.646c-0.556,0.639-0.91,1.45-0.979,2.35c0.325,0.05,1.183,0.188,1.183,0.266c0,0.001-0.004,0.003-0.004,0.005H10.789z M8,3.49c-0.217,0-0.41,0.07-0.587,0.167C6.912,3.299,6.133,2.76,6.06,2.832c-0.073,0.074,0.47,0.859,0.827,1.359C6.812,4.347,6.76,4.516,6.754,4.698h2.492C9.224,4.027,8.676,3.49,8,3.49z"
                fill="#F89100"
                class="svgstore-item"
        ></path>
    </symbol>
    <symbol id="security-system" viewBox="0 0 14 16" preserveAspectRatio="xMidYMid">
        <path
                d="M0,0c0,0,0,9.557,0,10.074C0,12.421,6.492,16,7.021,16C7.55,16,14,12.421,14,10.074C14,7.729,14,0,14,0H0z M6.801,10.643L2.859,6.807l1.288-1.258l2.653,2.582l4.417-4.332l1.292,1.258L6.801,10.643z"
                fill="#F89100"
                class="svgstore-item"
        ></path>
    </symbol>
    <symbol id="service" viewBox="0 0 16 16" preserveAspectRatio="xMidYMid">
        <path
                d="M14.681,7.906H1.32C1.406,4.453,4.078,2.35,7.462,2.147v-0.22h0.169v-0.86h0.738v0.86h0.169v0.22C11.921,2.35,14.594,4.453,14.681,7.906z M9.023,0H6.977v0.551h2.047V0z M15.708,8.488H0.293C0.131,8.488,0,8.621,0,8.783v0.441c0,0.16,0.131,0.293,0.293,0.293h15.415c0.16,0,0.292-0.133,0.292-0.293V8.783C16,8.621,15.868,8.488,15.708,8.488z M10.986,10.18c-0.688,0.293-2.721,1.768-3.953,1.768c-1.616,0.082-1.615-1.092-1.801-1.279c-0.186-0.186-0.584-0.561-1.061-0.561c-0.238,0-0.529,0.215-0.583,0.348c0.257,0.105,0.853,0.568,0.98,0.906c0.212,0.561,0.026,1.361,0.45,1.92c0.424,0.561,0.542,1.348,0.542,1.348l2.356-0.295c0,0,0.256-0.313,0.657-0.789c0.621-0.625,1.547-2.01,2.503-2.648c0.798-0.533,1.041-0.459,1.333-0.762C12.411,10.135,11.809,9.83,10.986,10.18z M5.313,14.938l2.812-0.303V16H5.313V14.938z M5.545,15.52c0,0.168,0.135,0.303,0.301,0.303s0.301-0.135,0.301-0.303c0-0.166-0.135-0.301-0.301-0.301S5.545,15.354,5.545,15.52z"
                fill="#F89100"
                class="svgstore-item"
        ></path>
    </symbol>
    <symbol id="shower" viewBox="0 0 15 14.07" preserveAspectRatio="xMidYMid">
        <path
                d="m 0.915,8.43 c 0,0 13.125,0 13.125,0 0.765,0 0.96,-0.21 0.96,-0.48 0,-0.24 -0.195,-0.465 -0.96,-0.465 0,0 -13.125,0 -13.125,0 C 0.135,7.485 0,7.71 0,7.95 0,8.22 0.135,8.43 0.915,8.43 Z m 0.03,-1.425 13.125,0 c 0,0 -1.23,-4.2 -6.57,-4.2 -5.445,0 -6.555,4.2 -6.555,4.2 z m 5.625,-4.2 1.875,0 L 8.445,0 6.57,0 Z m -4.245,6.51 c 0,0 -0.48,0.99 -0.48,1.335 0,0.33 0.225,0.6 0.48,0.6 0.27,0 0.495,-0.27 0.495,-0.6 0,-0.345 -0.495,-1.335 -0.495,-1.335 z m 1.875,0 c 0,0 -0.48,0.99 -0.48,1.335 0,0.33 0.225,0.6 0.48,0.6 0.27,0 0.495,-0.27 0.495,-0.6 C 4.695,10.305 4.2,9.315 4.2,9.315 Z m 1.875,0 c 0,0 -0.48,0.99 -0.48,1.335 0,0.33 0.225,0.6 0.48,0.6 0.27,0 0.495,-0.27 0.495,-0.6 0,-0.345 -0.495,-1.335 -0.495,-1.335 z m 5.625,0 c 0,0 -0.48,0.99 -0.48,1.335 0,0.33 0.225,0.6 0.48,0.6 0.27,0 0.495,-0.27 0.495,-0.6 0,-0.345 -0.495,-1.335 -0.495,-1.335 z m -3.75,0 c 0,0 -0.48,0.99 -0.48,1.335 0,0.33 0.225,0.6 0.48,0.6 0.27,0 0.495,-0.27 0.495,-0.6 0,-0.345 -0.495,-1.335 -0.495,-1.335 z m 1.875,0 c 0,0 -0.48,0.99 -0.48,1.335 0,0.33 0.225,0.6 0.48,0.6 0.27,0 0.495,-0.27 0.495,-0.6 0,-0.345 -0.495,-1.335 -0.495,-1.335 z m 2.835,2.82 c 0,0 -0.465,0.99 -0.465,1.335 0,0.33 0.195,0.6 0.465,0.6 0.255,0 0.465,-0.27 0.465,-0.6 0,-0.345 -0.465,-1.335 -0.465,-1.335 z m -11.265,0 c 0,0 -0.48,0.99 -0.48,1.335 0,0.33 0.21,0.6 0.48,0.6 0.255,0 0.48,-0.27 0.48,-0.6 0,-0.345 -0.48,-1.335 -0.48,-1.335 z m 1.875,0 c 0,0 -0.48,0.99 -0.48,1.335 0,0.33 0.21,0.6 0.48,0.6 0.255,0 0.48,-0.27 0.48,-0.6 0,-0.345 -0.48,-1.335 -0.48,-1.335 z m 1.875,0 c 0,0 -0.48,0.99 -0.48,1.335 0,0.33 0.21,0.6 0.48,0.6 0.255,0 0.48,-0.27 0.48,-0.6 0,-0.345 -0.48,-1.335 -0.48,-1.335 z m 5.625,0 c 0,0 -0.48,0.99 -0.48,1.335 0,0.33 0.21,0.6 0.48,0.6 0.255,0 0.48,-0.27 0.48,-0.6 0,-0.345 -0.48,-1.335 -0.48,-1.335 z m -3.75,0 c 0,0 -0.48,0.99 -0.48,1.335 0,0.33 0.21,0.6 0.48,0.6 0.255,0 0.48,-0.27 0.48,-0.6 0,-0.345 -0.48,-1.335 -0.48,-1.335 z m 1.875,0 c 0,0 -0.48,0.99 -0.48,1.335 0,0.33 0.21,0.6 0.48,0.6 0.255,0 0.48,-0.27 0.48,-0.6 0,-0.345 -0.48,-1.335 -0.48,-1.335 z"
                fill="#F89100"
                class="svgstore-item"
        ></path>
    </symbol>
    <symbol id="single" viewBox="0 0 15 16.304348" preserveAspectRatio="xMidYMid">
        <path
                d="m 14.983696,2.706522 c 0,0 0,0 0,0 C 14.967386,1.222826 13.76087,0 12.26087,0 c 0,0 -9.5054352,0 -9.5054352,0 -1.5,0 -2.7228261,1.222826 -2.7228261,2.706522 0,0 -0.0326087,0 -0.0326087,0 l 0,13.597826 1.4021739,0 0,-1.320652 12.2608691,0 0,1.320652 1.320653,0 z M 15,10.858696 l -14.98369565,0 0,-1.353261 0.78260869,0 c 0,0 0,-0.586957 0,-0.586957 0,-0.847826 0.68478266,-1.532608 1.54891306,-1.532608 0,0 10.3206519,0 10.3206519,0 0.847826,0 1.548913,0.684782 1.548913,1.532608 0,0 0,0.586957 0,0.586957 l 0.782609,0 z M 4.1086957,4.336957 c 0,-0.423913 0.3586956,-0.782609 0.7826086,-0.782609 0,0 5.2336957,0 5.2336957,0 0.440217,0 0.782609,0.358696 0.782609,0.782609 0,0 0,2.494565 0,2.494565 l -6.7989133,0 c 0,0 0,-2.494565 0,-2.494565 z"
                fill="#F89100"
                class="svgstore-item"
        ></path>
    </symbol>
    <symbol id="sink" viewBox="0 0 16 16" preserveAspectRatio="xMidYMid">
        <path
                d="M0.889,7.996h14.223c0,2.603-3.184,4.712-7.111,4.712 S0.889,10.599,0.889,7.996z M15.704,5.632H0.296C0.133,5.632,0,5.765,0,5.928v1.186c0,0.163,0.133,0.296,0.296,0.296h15.408 C15.866,7.409,16,7.276,16,7.113V5.928C16,5.765,15.866,5.632,15.704,5.632z M6.519,12.939l0.296,0.899h0.297V15h1.777v-1.161h0.297 l0.296-0.899C9.095,12.981,8.403,13.004,8,13.004S6.904,12.981,6.519,12.939z M6.29,2.186h0.397l0.714,1.446v0.825H6.667v0.889 h0.734h1.186h0.746V4.457H8.587V3.355L7.424,1H5.105v2.123H6.29V2.186z"
                fill="#F89100"
                class="svgstore-item"
        ></path>
    </symbol>
    <symbol id="slippers" viewBox="0 0 16 16" preserveAspectRatio="xMidYMid">
        <path
                d="M3.383,0.937c-3.051,0-3.567,3.235-3.333,5.808C0.389,10.457,0.941,16,3.664,16c2.628,0,2.355-2.617,2.064-4.646C5.313,8.45,6.051,7.77,6.417,5.254C6.715,3.064,5.213,0.937,3.383,0.937z M4.74,14.934c-0.081,0.088-0.33,0.356-1.076,0.356c-1.448,0-2.146-2.815-2.521-5.47c1.137-2.822,2.865-2.952,3.727-0.536c-0.035,0.598-0.01,1.29,0.116,2.166C5.125,12.424,5.385,14.236,4.74,14.934z M3.301,2.482c-0.807,0-1.573,0.228-2.27,0.635C1.174,2.779,1.35,2.49,1.561,2.261C2.008,1.77,2.604,1.531,3.383,1.531c0.582,0,1.159,0.292,1.623,0.824c0.186,0.213,0.34,0.451,0.468,0.707C4.805,2.689,4.07,2.482,3.301,2.482z M9.609,3.748c-0.085,2.54,0.52,3.341-0.406,6.126c-0.646,1.944-1.379,4.471,1.206,4.938c2.68,0.483,4.208-4.873,5.201-8.468c0.688-2.488,0.754-5.765-2.247-6.307C11.562-0.287,9.706,1.54,9.609,3.748z M9.918,10.1c0.279-0.84,0.428-1.517,0.499-2.11c1.276-2.226,2.106-2.192,3.571,1.188c-0.841,2.545-2.027,5.192-3.453,4.936c-0.733-0.132-0.931-0.441-0.994-0.542C9.03,12.771,9.607,11.033,9.918,10.1z M10.927,1.758c0.172-0.228,0.365-0.436,0.586-0.613c0.552-0.439,1.171-0.625,1.745-0.521c0.765,0.138,1.309,0.479,1.663,1.041c0.166,0.263,0.288,0.579,0.368,0.938c-0.613-0.525-1.327-0.885-2.121-1.028C12.41,1.437,11.652,1.51,10.927,1.758z"
                fill="#F89100"
                class="svgstore-item"
        ></path>
    </symbol>
    <symbol id="smoking" viewBox="0 0 16 16" preserveAspectRatio="xMidYMid">
        <path
                d="M8,1.185c3.758,0,6.814,3.057,6.814,6.815c0,3.757-3.057,6.814-6.814,6.814S1.185,11.757,1.185,8 C1.185,4.242,4.242,1.185,8,1.185 M8,0C3.582,0,0,3.581,0,8c0,4.418,3.582,8,8,8c4.418,0,8-3.582,8-8C16,3.581,12.418,0,8,0L8,0z M12.212,8.51h1.095v2.002h-1.095V8.51z M2.963,10.512h8.638V8.51H2.963V10.512z M12.91,8.105c0.883-1.327,0.153-2.145-0.698-2.646 c-1.131-0.667-2.933-0.943-2.708-2.761c-1.218,3.518,4.126,3.463,3.349,5.521"
                fill="#F89100"
                class="svgstore-item"
        ></path>
    </symbol>
    <symbol id="sofa" viewBox="0 0 16 9.979" preserveAspectRatio="xMidYMid">
        <path
                d="M12.739,9.262H3.26V6.578c0,0,3.474-0.261,4.734-0.261s4.745,0.261,4.745,0.261V9.262z M12.152,0.653C11.794,0.254,10.831,0,8,0C5.168,0,4.205,0.253,3.848,0.652c-2.065,0.51-2.304,1.934-1.826,3.494C2.645,4.339,3.119,4.94,3.232,5.6L3.26,6.306c0.234-0.067,3.662-0.249,4.734-0.249c1.073,0,4.509,0.182,4.745,0.249L12.767,5.6c0.113-0.659,0.588-1.261,1.211-1.453C14.483,2.604,14.227,1.168,12.152,0.653z M2.996,5.86C2.973,5.053,2.313,4.404,1.499,4.404C0.671,4.404,0,5.076,0,5.904c0,0.805,0.633,1.461,1.428,1.497c0.133,0.006,0.174,0.165,0.174,0.165l0.098,2.412h1.299V5.86H2.996z M13,5.86v4.118h1.299l0.099-2.412c0,0,0.041-0.159,0.174-0.165C15.366,7.365,16,6.709,16,5.904c0-0.828-0.672-1.5-1.5-1.5c-0.813,0-1.475,0.648-1.497,1.456H13z"
                fill="#F89100"
                class="svgstore-item"
        ></path>
    </symbol>
    <symbol id="soundproofed-room" viewBox="0 0 16 16" preserveAspectRatio="xMidYMid">
        <path
                fill="#F89100"
                fill-rule="evenodd"
                clip-rule="evenodd"
                d="M3.051,5.825h1.403v4.35H3.051V5.825z M5.065,10.175l2.478,2v-8.35 l-2.478,2V10.175z M12.949,6.602L12.268,5.92l-1.398,1.399l-1.4-1.399L8.79,6.602L10.188,8L8.79,9.4l0.679,0.68l1.4-1.399 l1.398,1.399l0.682-0.68L11.55,8L12.949,6.602z M8,1.185C4.242,1.185,1.185,4.242,1.185,8S4.242,14.814,8,14.814 S14.814,11.758,14.814,8S11.758,1.185,8,1.185 M8,0c4.418,0,8,3.582,8,8c0,4.418-3.582,8-8,8c-4.418,0-8-3.582-8-8 C0,3.582,3.582,0,8,0L8,0z"
                class="svgstore-item"
        ></path>
    </symbol>
    <symbol id="table" viewBox="0 0 16 12" preserveAspectRatio="xMidYMid">
        <path
                d="M3.291,5.645h0.947v2.98L3.291,8.83V5.645z M11.762,8.625L12.71,8.83V5.645h-0.948V8.625z M16,3.928L13.765,0H2.234L0,3.928v1.25h1.009V12h1.729V5.178h10.523V12h1.729V5.178H16V3.928z"
                fill="#F89100"
                class="svgstore-item"
        ></path>
    </symbol>
    <symbol id="tea-set" viewBox="0 0 16 16" preserveAspectRatio="xMidYMid">
        <path
                d="M15.98,8.901c-0.08-0.759-0.449-1.308-1.041-1.545c-0.671-0.271-1.525-0.093-2.174,0.456c-0.087,0.074-0.239,0.244-0.362,0.464c0.021-0.213,0.033-0.428,0.033-0.646H2.203c0,2.286,1.164,4.259,2.855,5.207c-0.408,0.245-0.663,0.554-0.663,0.894h5.847c0-0.34-0.254-0.648-0.661-0.893c0.41-0.23,0.789-0.521,1.128-0.862c-0.022,0.136-0.027,0.278,0.015,0.426c0.036,0.129,0.153,0.213,0.281,0.213c0.026,0,0.054-0.004,0.08-0.012c0.154-0.044,0.245-0.206,0.2-0.361c-0.054-0.19,0.052-0.345,0.131-0.412c0.47-0.523,0.756-0.437,1.281-0.278c0.185,0.056,0.38,0.114,0.593,0.149c0.723,0.117,1.464-0.098,1.977-0.58C15.823,10.596,16.076,9.809,15.98,8.901z M14.866,10.694c-0.381,0.359-0.931,0.521-1.48,0.429c-0.188-0.03-0.358-0.083-0.52-0.132c-0.427-0.129-0.897-0.264-1.4,0.035c0.349-0.548,0.615-1.167,0.779-1.835l0,0c0.043,0.155,0.199,0.242,0.359,0.204c0.156-0.044,0.247-0.204,0.204-0.36c-0.082-0.296,0.243-0.697,0.336-0.777c0.477-0.401,1.11-0.545,1.577-0.358c0.386,0.155,0.62,0.522,0.677,1.063C15.496,9.887,15.162,10.414,14.866,10.694z M0,14.303h14.608C12.79,15.517,10.111,16,7.305,16S1.889,15.688,0,14.303z M7.516,0c-0.837,2.833,3.392,4.416-0.264,6.989C8.549,5.354,5.293,2.537,7.516,0z"
                fill="#F89100"
                class="svgstore-item"
        ></path>
    </symbol>
    <symbol id="three-single-beds" viewBox="0 0 16 16" preserveAspectRatio="xMidYMid">
        <path
                fill="#F89100"
                d="M13.33,0H9.334C8.03,0,6.939,0.911,6.682,2.121c0.917,0.897,1.46,2.157,1.46,3.617 c0,0.748-0.149,1.453-0.419,2.095c0.275-0.354,0.696-0.591,1.186-0.591h4.807c0.853,0,1.514,0.706,1.514,1.537v0.577h0.771v1.303 H8.317c0.11,0.464,0.185,0.946,0.185,1.46c0,1.516-0.538,2.859-1.444,3.881H7.99v-1.281h6.729V16H16V2.67C16,1.196,14.804,0,13.33,0 z M13.981,6.729H8.64V4.273c0-0.428,0.343-0.77,0.769-0.77h3.804c0.449,0,0.769,0.342,0.769,0.77V6.729z M0.36,13.719 c0.46,0.281,1.18,0.521,1.9,0.521c1.32,0,2.1-0.881,2.1-2.201c0-1.561-1.1-2.34-2.521-2.34H1.48V8.119h0.26 c0.96,0,2.261-0.54,2.261-1.96c0-1.1-0.64-1.72-1.601-1.72c-0.62,0-1.18,0.26-1.62,0.56L0.42,3.397c0.52-0.38,1.5-0.72,2.521-0.72 c2.1,0,3.201,1.4,3.201,3.061c0,1.32-0.7,2.42-1.9,2.98v0.04c1.22,0.38,2.26,1.479,2.26,3.36C6.501,14.16,5.041,16,2.42,16 C1.46,16,0.54,15.74,0,15.4L0.36,13.719z"
                class="svgstore-item"
        ></path>
    </symbol>
    <symbol id="tile" viewBox="0 0 16 16" preserveAspectRatio="xMidYMid">
        <path
                d="M0,0.07v7.407h7.407V0.07H0z M0.889,6.589v-5.63h5.63L0.889,6.589z M8.593,0.07v7.407H16 V0.07H8.593z M9.481,6.589v-5.63h5.63L9.481,6.589z M0,8.663v7.407h7.407V8.663H0z M0.889,15.182v-5.63h5.63L0.889,15.182z M8.593,8.663v7.407H16V8.663H8.593z M9.481,15.182v-5.63h5.63L9.481,15.182z"
                fill="#F89100"
                class="svgstore-item"
        ></path>
    </symbol>
    <symbol id="toilet" viewBox="0 0 14 16" preserveAspectRatio="xMidYMid">
        <path
                d="M14,7.766v0.469c0,0.147-0.119,0.268-0.268,0.268h-0.051c-0.154,1.938-2.121,3.529-4.721,3.936c0.086,0.744,0.215,1.639,0.406,2.559h0.084c0.141,0,0.275,0.115,0.297,0.259l0.074,0.469c0.023,0.151-0.078,0.274-0.227,0.275V16l0,0c-0.189,0-7.793,0-7.793,0H1.777c-0.148,0-0.25-0.125-0.227-0.276l0.073-0.469c0.022-0.144,0.155-0.259,0.298-0.259h0.173c0.243-0.938,0.55-2.392,0.542-3.752c-1.289-0.718-2.223-1.678-2.348-2.742H0.268C0.119,8.502,0,8.382,0,8.234V7.766c0-0.148,0.119-0.269,0.268-0.269h13.465C13.881,7.497,14,7.617,14,7.766z M13.816,6.53c0-0.175-0.119-0.315-0.268-0.315H6.257c-0.147,0-0.268,0.141-0.268,0.315v0.421h7.827V6.53z M4.709,0.725c0-0.147-0.119-0.268-0.268-0.268H1.336c-0.147,0-0.268,0.12-0.268,0.268L0.268,6.951h5.244L4.709,0.725z M2.461,0.289h0.801c0.08,0,0.145-0.064,0.145-0.145S3.342,0,3.262,0H2.461c-0.08,0-0.145,0.064-0.145,0.145S2.381,0.289,2.461,0.289z"
                fill="#F89100"
                class="svgstore-item"
        ></path>
    </symbol>
    <symbol id="towel" viewBox="0 0 16 15.996" preserveAspectRatio="xMidYMid">
        <path
                d="M13.931,0.051C13.783,0.031,13.144,0,13.144,0H3.807C1.852,0,1.345,2.344,1.345,5.053v9.85c0,0,1.032-0.741,4.771-0.741c3.739,0,6.584,1.835,6.584,1.835V5.053c0-2.709-0.041-4.686,1.915-4.686C14.614,0.367,14.648,0.145,13.931,0.051z M12.364,1.473C12.1,2.359,12.1,3.531,12.1,4.889v10.099c-1.172-0.573-3.358-1.425-5.984-1.425c-2.104,0-3.405,0.232-4.172,0.455V5.053c0-4.454,1.402-4.454,1.863-4.454h8.979C12.606,0.838,12.466,1.13,12.364,1.473z M1.17,1.838H0.25c0,0-0.25-0.184-0.25-0.57C0,0.88,0.25,0.743,0.25,0.743h1.373C1.442,1.053,1.291,1.418,1.17,1.838z M16,0v1.838h-2.547c0.003-0.012,0.005-0.025,0.009-0.037c0.192-0.646,0.505-0.887,1.152-0.887h0.496V0H16z M15.094,2.385v10.144l-1.848-0.248V4.889c0-0.964,0-1.826,0.096-2.504H15.094z"
                fill="#F89100"
                class="svgstore-item"
        ></path>
    </symbol>
    <symbol id="tv" viewBox="0 0 16 16" preserveAspectRatio="xMidYMid">
        <path d="M16,13.055V2.02H0v11.035h6.896v1.104H4.138l-0.827,0.826h3.586h2.482h3.587l-0.828-0.826H9.379v-1.104H16z M15,12.27h-1v-0.484h1V12.27z M1,3.02h14v8H1V3.02z" fill="#F89100" class="svgstore-item"></path>
    </symbol>
    <symbol id="twin" viewBox="0 0 15 11.201396" preserveAspectRatio="xMidYMid">
        <path
                d="m 6.5802592,1.869392 c 0,0 0,0 0,0 C 6.5802592,0.837488 5.7427717,0 4.7108674,0 c 0,0 -2.8115653,0 -2.8115653,0 -1.03190429,0 -1.86939183,0.837488 -1.86939183,1.869392 0,0 -0.02991027,0 -0.02991027,0 l 0,9.332004 0.97208375,0 0,-0.897308 4.69591225,0 0,0.897308 0.9122632,0 z m 0.014955,5.59322 -6.58025927,0 0,-0.912263 0.53838485,0 c 0,0 0,-0.403788 0,-0.403788 0,-0.583251 0.46360922,-1.07677 1.06181452,-1.07677 0,0 3.3649053,0 3.3649053,0 0.5982054,0 1.0618146,0.493519 1.0618146,1.07677 0,0 0,0.403788 0,0.403788 l 0.55334,0 z M 1.4356929,2.991027 c 0,-0.299103 0.224327,-0.538385 0.5383849,-0.538385 0,0 2.6620139,0 2.6620139,0 0.2991027,0 0.5383849,0.239282 0.5383849,0.538385 0,0 0,1.719841 0,1.719841 l -3.7387837,0 c 0,0 0,-1.719841 0,-1.719841 z M 14.985045,1.869392 c 0,0 0,0 0,0 C 14.985045,0.837488 14.147557,0 13.115653,0 c 0,0 -2.79661,0 -2.79661,0 -1.0468596,0 -1.869392,0.837488 -1.869392,1.869392 0,0 -0.02991,0 -0.02991,0 l 0,9.332004 0.9571286,0 0,-0.897308 4.7108674,0 0,0.897308 0.897308,0 z M 15,7.462612 l -6.5653041,0 0,-0.912263 0.5383849,0 c 0,0 0,-0.403788 0,-0.403788 0,-0.583251 0.4636091,-1.07677 1.0618142,-1.07677 0,0 3.364906,0 3.364906,0 0.598205,0 1.061814,0.493519 1.061814,1.07677 0,0 0,0.403788 0,0.403788 l 0.538385,0 z M 9.8404786,2.991027 c 0,-0.299103 0.2392824,-0.538385 0.5383844,-0.538385 0,0 2.662014,0 2.662014,0 0.314058,0 0.538385,0.239282 0.538385,0.538385 0,0 0,1.719841 0,1.719841 l -3.7387834,0 c 0,0 0,-1.719841 0,-1.719841 z"
                fill="#F89100"
                class="svgstore-item"
        ></path>
    </symbol>
    <symbol id="two-king-size-beds" viewBox="0 0 16 16" preserveAspectRatio="xMidYMid">
        <path
                d="M14.814,4.148H1.185C0.533,4.148,0,4.682,0,5.333v8.889v0.889V16h1.185l0.445-0.889h12.74L14.814,16H16 v-0.889v-0.889V5.333C16,4.682,15.467,4.148,14.814,4.148z M8.889,7.394c0-0.326,0.267-0.593,0.593-0.593h2.963 c0.326,0,0.593,0.267,0.593,0.593v1.777H8.889V7.394z M2.963,7.394c0-0.326,0.267-0.593,0.593-0.593h2.963 c0.326,0,0.593,0.267,0.593,0.593v1.777H2.963V7.394z M0.593,10.963c0-0.651,0.533-1.186,1.185-1.186h12.445 c0.651,0,1.185,0.534,1.185,1.186v1.186h-1.185H1.778H0.593V10.963z M3.73,2.444c-0.193-0.34-1.068-1.852-1.068-1.852 s2.675,1.405,3.523,1.185C6.92,1.587,8,0,8,0s1.08,1.587,1.814,1.778c0.849,0.22,3.523-1.185,3.523-1.185s-0.874,1.512-1.067,1.852 c-0.09,0.159-0.214,0.667-0.214,0.667h-2.028H8H5.972H3.943C3.943,3.111,3.82,2.604,3.73,2.444z"
                fill="#F89100"
                class="svgstore-item"
        ></path>
    </symbol>
    <symbol id="two-queen-size-beds" viewBox="0 0 16 16" preserveAspectRatio="xMidYMid">
        <path
                d="M14.814,3.924H1.185C0.533,3.924,0,4.468,0,5.132v9.058v0.905V16h1.185l0.445-0.905H14.37L14.814,16H16 v-0.905v-0.905V5.132C16,4.468,15.467,3.924,14.814,3.924z M8.889,7.231c0-0.333,0.267-0.604,0.593-0.604h2.963 c0.326,0,0.593,0.271,0.593,0.604v1.812H8.889V7.231z M2.963,7.231c0-0.333,0.267-0.604,0.593-0.604h2.963 c0.326,0,0.593,0.271,0.593,0.604v1.812H2.963V7.231z M0.593,10.867c0-0.663,0.533-1.206,1.186-1.206h12.444 c0.651,0,1.185,0.543,1.185,1.206v1.208h-1.185H1.778H0.593V10.867z M5.666,2.189C5.56,1.842,5.073,0.604,5.073,0.604 s1.485,1.13,1.956,0.906C7.437,1.314,8.036,0,8.036,0s0.601,1.315,1.008,1.51c0.471,0.225,1.955-0.906,1.955-0.906 s-0.485,1.239-0.592,1.585c-0.05,0.162-0.119,0.679-0.119,0.679H9.163H8.036H6.91H5.784C5.784,2.868,5.716,2.351,5.666,2.189z"
                fill="#F89100"
                class="svgstore-item"
        ></path>
    </symbol>
    <symbol id="view-race-track" viewBox="0 0 16 16" preserveAspectRatio="xMidYMid">
        <path
                d="M7.304,14.241H7.05c-0.736,0-1.436-0.236-2.021-0.682l0.18-0.235c0.533,0.406,1.169,0.62,1.841,0.62h0.254V14.241z M8.214,14.192L8.163,13.9c0.649-0.113,1.255-0.443,1.708-0.929l0.217,0.202C9.592,13.706,8.926,14.068,8.214,14.192z M4.376,12.901c-0.436-0.581-0.667-1.272-0.667-2l0.295-0.023c0,0.686,0.211,1.316,0.608,1.846L4.376,12.901z M10.619,12.414l-0.264-0.135c0.219-0.43,0.33-0.893,0.33-1.378v-0.573h0.295v0.573C10.98,11.434,10.859,11.942,10.619,12.414z M4.005,9.989H3.709V7.915h0.295V9.989z M10.98,9.438h-0.295V7.365h0.295V9.438z M4.005,7.026H3.709V5.099c0-0.051,0.001-0.102,0.003-0.153l0.296,0.013c-0.002,0.046-0.004,0.093-0.004,0.14V7.026z M10.98,6.476h-0.295V5.099c0-0.222-0.025-0.444-0.072-0.659l0.289-0.064c0.053,0.236,0.078,0.479,0.078,0.723V6.476z M4.164,4.129l-0.28-0.094c0.23-0.686,0.688-1.288,1.289-1.698L5.34,2.582C4.792,2.955,4.374,3.504,4.164,4.129z M10.316,3.649C10,3.068,9.496,2.598,8.895,2.325l0.121-0.27c0.66,0.299,1.215,0.815,1.561,1.452L10.316,3.649z M6.097,2.208L6.004,1.926C6.341,1.815,6.692,1.759,7.05,1.759h0.592c0.162,0,0.326,0.012,0.484,0.036L8.083,2.087C7.938,2.066,7.79,2.055,7.642,2.055H7.05C6.724,2.055,6.403,2.106,6.097,2.208z M7.647,12.444c0.816,0,1.481-0.664,1.481-1.481V5.037c0-0.817-0.665-1.481-1.481-1.481H7.042c-0.816,0-1.48,0.665-1.48,1.481v5.926c0,0.817,0.664,1.481,1.48,1.481H7.647z M14.76,5.037l-2.105-0.546C12.381,1.966,10.246,0,7.647,0H7.042C4.261,0,2.005,2.255,2.005,5.037v5.926C2.005,13.745,4.261,16,7.042,16h0.605c2.599,0,4.733-1.966,5.007-4.491l2.105-0.546V5.037z M11.797,10.963c0,2.287-1.861,4.148-4.149,4.148H7.042c-2.287,0-4.147-1.861-4.147-4.148V5.037c0-2.288,1.86-4.148,4.147-4.148h0.605c2.288,0,4.149,1.861,4.149,4.148V10.963z"
                fill="#F89100"
                class="svgstore-item"
        ></path>
    </symbol>
    <symbol id="view" viewBox="0 0 16 16" preserveAspectRatio="xMidYMid">
        <path
                d="M8,5.5c-0.7,0-1.3,0.3-1.8,0.7L8,8H5.5c0,1.4,1.1,2.5,2.5,2.5s2.5-1.1,2.5-2.5C10.5,6.6,9.4,5.5,8,5.5z M8,2 C2.9,2,0,7.3,0,8s2.9,6,8,6s8-5.3,8-6S13.1,2,8,2z M8,12c-2.2,0-4-1.8-4-4c0-2.2,1.8-4,4-4s4,1.8,4,4C12,10.2,10.2,12,8,12z"
                fill="#F89100"
                class="svgstore-item"
        ></path>
    </symbol>
    <symbol id="warm-floor" viewBox="0 0 16 16" preserveAspectRatio="xMidYMid">
        <path
                fill="#F89100"
                d="M0,16h7.424l0.51-0.51L8.444,16H16v-2.238l-0.236-0.236L16,13.289V9.151l-0.236-0.236L16,8.679V4.542 l-0.236-0.236L16,4.07V0H0V16z M6.509,15.5H4.152l1.541-1.54l1.178,1.179L6.509,15.5z M9.358,15.5l-2.604-2.603l1.179-1.179 l3.781,3.781H9.358z M15.5,15.5h-1.532L6.755,8.287l1.179-1.179l7.566,7.566V15.5z M15.152,0.5L15.5,0.848v2.309l-0.024,0.024 L12.796,0.5H15.152z M10.543,0.5L15.5,5.456v2.31L15.476,7.79L8.187,0.5H10.543z M15.5,10.065v2.31l-0.024,0.024L6.755,3.678 l1.179-1.179L15.5,10.065z M0.5,0.714L0.714,0.5h2.357L0.5,3.071V0.714z M0.5,5.323L5.323,0.5h0.737l0.811,0.81L0.5,7.681V5.323z M0.5,9.933L5.692,4.74l1.179,1.179L0.5,12.29V9.933z M0.5,14.542L5.692,9.35l1.179,1.179L1.899,15.5H0.5V14.542z"
                class="svgstore-item"
        ></path>
    </symbol>
    <symbol id="washer" viewBox="0 0 12.654 16" preserveAspectRatio="xMidYMid">
        <path
                d="M6.327,4.813c-2.403,0-4.351,1.948-4.351,4.351c0,2.403,1.947,4.352,4.351,4.352s4.351-1.948,4.351-4.352C10.678,6.761,8.73,4.813,6.327,4.813z M6.327,12.548c-1.869,0-3.384-1.516-3.384-3.385s1.515-3.384,3.384-3.384s3.385,1.515,3.385,3.384S8.196,12.548,6.327,12.548z M0,3.782v11.345C0,15.607,0.393,16,0.873,16h10.909c0.479,0,0.872-0.393,0.872-0.873V3.782H0z M6.327,13.844c-2.585,0-4.681-2.096-4.681-4.681s2.096-4.681,4.681-4.681c2.586,0,4.681,2.096,4.681,4.681S8.913,13.844,6.327,13.844z M9.411,9.015c0.003,0.05,0.008,0.099,0.008,0.148c0,1.708-1.384,3.093-3.092,3.093c-1.46,0-2.681-1.014-3.005-2.376c0.701,0.294,1.676,0.906,2.992-0.459C7.631,8.057,8.607,8.417,9.411,9.015z M11.782,0H0.873C0.393,0,0,0.393,0,0.873v2.473h12.654V0.873C12.654,0.393,12.262,0,11.782,0z M8.796,1.791c-0.128,0-0.232-0.232-0.232-0.518c0-0.287,0.104-0.52,0.232-0.52s0.231,0.232,0.231,0.52C9.027,1.559,8.924,1.791,8.796,1.791z M9.668,1.791c-0.128,0-0.231-0.232-0.231-0.518c0-0.287,0.104-0.52,0.231-0.52s0.231,0.232,0.231,0.52C9.899,1.559,9.796,1.791,9.668,1.791z M10.541,1.791c-0.128,0-0.231-0.232-0.231-0.518c0-0.287,0.104-0.52,0.231-0.52s0.231,0.232,0.231,0.52C10.772,1.559,10.669,1.791,10.541,1.791z M11.414,1.791c-0.129,0-0.232-0.232-0.232-0.518c0-0.287,0.104-0.52,0.232-0.52c0.128,0,0.231,0.232,0.231,0.52C11.646,1.559,11.542,1.791,11.414,1.791z"
                fill="#F89100"
                class="svgstore-item"
        ></path>
    </symbol>
    <symbol id="water-bottle" viewBox="0 0 16 16" preserveAspectRatio="xMidYMid">
        <path
                d="M6.012,9.375v5.664c0,0.541-0.371,0.98-0.834,0.98c0,0-0.234-0.183-0.576-0.298c-0.125,0.18-0.313,0.298-0.527,0.298c-0.217,0-0.406-0.119-0.531-0.302C3.174,15.833,2.9,16.02,2.9,16.02c-0.463,0-0.9-0.439-0.9-0.98V9.375c0-1.277,0.651-2.124,1.146-2.406v-0.95h1.719v0.887C5.342,7.1,6.012,7.981,6.012,9.375z M5.152,4.021H2.859v1.021h2.293V4.021z M14,5.81v9.066c0,0.631-0.564,1.144-1.286,1.144c0,0-0.335-0.198-0.831-0.334c-0.213,0.203-0.525,0.334-0.879,0.334c-0.354,0-0.669-0.131-0.879-0.334c-0.498,0.136-0.834,0.334-0.834,0.334c-0.721,0-1.279-0.513-1.279-1.144V5.81c0-1.729,1.43-2.87,2.206-3.014V2.017h1.575v0.78C12.571,2.944,14,4.084,14,5.81z M12.203,0H9.809v1.041h2.395V0z"
                fill="#F89100"
                class="svgstore-item"
        ></path>
    </symbol>
    <symbol id="wifi" viewBox="0 0 15 11.193806" preserveAspectRatio="xMidYMid">
        <path
                d="M 15,3.266733 C 13.066933,1.243756 10.42957,0 7.5074925,0 4.5854146,0 1.9330669,1.243756 0,3.281718 c 0,0 1.4235764,1.498502 1.4235764,1.498502 1.5434566,-1.663337 3.7012987,-2.667333 6.0839161,-2.667333 2.3676324,0 4.5254745,1.003996 6.0689315,2.652348 0,0 1.423576,-1.498502 1.423576,-1.498502 z M 2.5024975,5.919081 c 0,0 1.4235764,1.498501 1.4235764,1.498501 0.9140859,-0.959041 2.1728272,-1.558441 3.5814186,-1.558441 1.3936064,0 2.6523475,0.584415 3.5664335,1.543456 0,0 1.423576,-1.498501 1.423576,-1.498501 C 11.208791,4.570429 9.4555445,3.731269 7.5074925,3.731269 c -1.963037,0 -3.7162837,0.83916 -5.004995,2.187812 z M 5.034965,8.601398 c 0,0 2.4575425,2.592408 2.4575425,2.592408 l 0,0 c 0,0 2.4725275,-2.607393 2.4725275,-2.607393 C 9.3356643,7.927073 8.4815185,7.507492 7.5074925,7.507492 c -0.959041,0 -1.8431568,0.419581 -2.4725275,1.093906 z"
                fill="#F89100"
                class="svgstore-item"
        ></path>
    </symbol>
    <symbol id="window-leaf" viewBox="0 0 16 16" preserveAspectRatio="xMidYMid">
        <path
                fill="#F89100"
                d="M0,0v16h16V0H0z M7.111,14.222H1.778V1.777h5.333V14.222z M14.223,14.222L10.37,12.74V3.259l3.853-1.481 V14.222z M5.896,2.989L2.988,5.897V5.059L5.07,2.977h0.815L5.896,2.989z M5.896,5.952L2.988,8.86V8.022l2.908-2.908V5.952z"
                class="svgstore-item"
        ></path>
    </symbol>
    <symbol id="window-to-hotel-atrium" viewBox="0 0 16 16" preserveAspectRatio="xMidYMid">
        <path
                fill="#F89100"
                d="M0,0v16h16V0H0z M1.778,14.222V1.777h5.333v12.444H1.778z M14.223,14.222H8.889V1.777h5.334V14.222z M5.896,2.989L2.988,5.897V5.059L5.07,2.977h0.815L5.896,2.989z M2.988,8.022l2.908-2.911v0.841L2.988,8.86V8.022z M12.982,2.989 l-2.908,2.909V5.059l2.081-2.082h0.815L12.982,2.989z M10.074,8.86V8.022l2.907-2.908v0.838L10.074,8.86z"
                class="svgstore-item"
        ></path>
    </symbol>
    <symbol id="writing-materials" viewBox="0 0 16 16" preserveAspectRatio="xMidYMid">
        <path
                d="M12.997,8.684v5.941c0,0.758-0.62,1.375-1.383,1.375H1.383C0.62,16,0,15.383,0,14.625V4.799c0-0.161,0.064-0.316,0.179-0.43l4.214-4.191C4.508,0.064,4.662,0,4.824,0h6.79c0.729,0,1.32,0.564,1.372,1.275c-0.037,0.021-0.073,0.044-0.108,0.067l-0.039-0.038l-0.404,0.402l-0.553,0.521l0.014,0.015l-0.12,0.12V1.375c0-0.088-0.072-0.16-0.161-0.16H5.48v2.863c0,0.758-0.615,1.372-1.379,1.373H1.221v9.174c0,0.09,0.072,0.16,0.162,0.16h10.231c0.089,0,0.161-0.072,0.161-0.16V9.898L12.997,8.684z M15.524,2.404c-0.671-0.669-1.852-0.576-2.393-0.063l2.453,2.441C16.101,4.242,16.195,3.068,15.524,2.404z M12.266,3.197L7.086,8.35l2.46,2.445l5.18-5.15L12.266,3.197z M6.215,9.217l-0.788,2.59l0.644,0.641l2.603-0.785L6.215,9.217z M5.001,12.352l-0.575,1.09l1.096-0.572L5.001,12.352z"
                fill="#F89100"
                class="svgstore-item"
        ></path>
    </symbol>
</svg>
