<svg version="1.1" id="express-logo" xmlns="http://www.w3.org/2000/svg" xmlns:xlink="http://www.w3.org/1999/xlink" x="0" y="0" width="100%" height="100%" viewBox="0 0 182.7 60" preserveAspectRatio="xMidYMin meet" xml:space="preserve">
	<path fill-rule="evenodd" clip-rule="evenodd" fill="white" d="M80.3,28.5h14.4v3.3H84.5v7.2h8v3.4h-8v7.9h10.4v3.4H80.3V28.5L80.3,28.5z M25,0l12.5,7.2l11.6,6.7l-7.9,4.6L33.6,14l0,0l-8.1-4.7c-0.2-0.1-0.6-0.2-0.8,0L16.5,14l0,0l-7.6,4.4L1,13.9l11.5-6.6L25,0L25,0z M50.1,15.2l-8,4.6v18.2c0,0.3-0.2,0.6-0.5,0.7l-8.1,4.6l0,0l-7.6,4.4v9.5l11.7-6.7l12.5-7.2V28.9V15.2L50.1,15.2zM24.3,57.4v-9.5l-7.7-4.5l0,0l-8.1-4.7C8.2,38.6,8,38.4,8,38.1h0V19.8l-8-4.6v13.8v14.5l12.5,7.2L24.3,57.4L24.3,57.4z M24.3,29.3l0,16.8l-6.9-4l0,0l-7.7-4.4v-17l14.6,8.5C24.3,29.2,24.3,29.2,24.3,29.3L24.3,29.3z M25.9,29.2l14.6-8.4v16.8l-7.7,4.4l0,0L25.9,46L25.9,29.2C25.9,29.2,25.9,29.2,25.9,29.2L25.9,29.2z M10.5,19.3l14.6,8.5l14.5-8.4l-6.9-4l0,0L25,10.9l-7.7,4.4l0,0L10.5,19.3L10.5,19.3z M79.9,6.5h7.7v1.8h-2.8v10.8h-2.1V8.3h-2.8V6.5L79.9,6.5z M87.8,9.8h1.7v2.1c0.5-1.5,1.3-2.3,2.3-2.3c0.1,0,0.2,0,0.3,0v2c-0.2,0-0.3,0-0.4,0c-1.4,0-2,0.9-2,2.8v4.7h-1.9V9.8L87.8,9.8z M94.9,12.4l-1.8-0.2c0.1-0.8,0.5-1.5,1.1-1.9c0.6-0.5,1.4-0.7,2.4-0.7c0.8,0,1.5,0.2,2,0.5c0.5,0.3,0.8,0.7,0.9,1.2c0.1,0.5,0.2,1.2,0.2,2.1v3.2c0,1.3,0.1,2.1,0.2,2.6h-1.8c-0.1-0.3-0.1-0.9-0.1-1.5c-0.6,1.2-1.4,1.8-2.6,1.8c-0.8,0-1.4-0.2-1.9-0.7c-0.5-0.5-0.7-1.1-0.7-2c0-1,0.3-1.8,1-2.4c0.7-0.6,1.9-0.9,3.6-0.9c0.1,0,0.2,0,0.4,0V13c0-0.7-0.1-1.2-0.3-1.5c-0.2-0.3-0.6-0.5-1.1-0.5C95.6,11,95.1,11.4,94.9,12.4L94.9,12.4z M97.8,14.6c-0.2,0-0.4,0-0.6,0c-1.7,0-2.5,0.7-2.5,2c0,0.9,0.4,1.4,1.2,1.4c0.5,0,0.9-0.3,1.3-0.8c0.4-0.5,0.5-1.2,0.5-2.1V14.6L97.8,14.6z M100.6,9.8h1.9l1.7,6.7l1.7-6.7h1.7l-2.6,9.3h-1.7L100.6,9.8L100.6,9.8z M115.4,14.7h-5.3c0,1.3,0.2,2.1,0.5,2.5c0.3,0.4,0.8,0.6,1.3,0.6c0.9,0,1.4-0.6,1.6-1.7l1.8,0.2c-0.5,2-1.6,3-3.4,3c-1.1,0-2-0.4-2.7-1.2c-0.7-0.8-1-2-1-3.5c0-1.6,0.3-2.8,1-3.7c0.7-0.9,1.6-1.3,2.7-1.3c0.8,0,1.5,0.2,2,0.7c0.5,0.4,0.9,1,1.1,1.7C115.3,12.6,115.4,13.6,115.4,14.7L115.4,14.7z M113.4,13.4c0-1.6-0.5-2.5-1.6-2.5c-1,0-1.6,0.8-1.7,2.5H113.4L113.4,13.4z M117,6.5h1.9v12.6H117V6.5L117,6.5z M121.2,6.5h2.1v10.8h4.5v1.8h-6.5V6.5L121.2,6.5z M130.8,8.5h-2v-2h2V8.5L130.8,8.5z M128.9,9.8h1.9v9.3h-1.9V9.8L128.9,9.8z M133,9.8h1.8v1.4c0.4-1.1,1.2-1.7,2.3-1.7c0.6,0,1.1,0.2,1.5,0.5c0.4,0.3,0.6,0.7,0.7,1.1c0.1,0.4,0.2,1.1,0.2,2v6h-1.9v-5.9c0-0.8-0.1-1.4-0.2-1.6c-0.1-0.3-0.4-0.4-0.9-0.4c-0.5,0-0.8,0.2-1.1,0.6c-0.3,0.4-0.4,1.1-0.4,2.2v5.2H133V9.8L133,9.8z M148.5,14.7h-5.3c0,1.3,0.2,2.1,0.5,2.5c0.3,0.4,0.8,0.6,1.3,0.6c0.9,0,1.4-0.6,1.6-1.7l1.8,0.2c-0.5,2-1.6,3-3.4,3c-1.1,0-2-0.4-2.7-1.2c-0.7-0.8-1-2-1-3.5c0-1.6,0.3-2.8,1-3.7c0.7-0.9,1.6-1.3,2.7-1.3c0.8,0,1.5,0.2,2,0.7c0.5,0.4,0.9,1,1.1,1.7C148.3,12.6,148.5,13.6,148.5,14.7L148.5,14.7z M146.5,13.4c0-1.6-0.5-2.5-1.6-2.5c-1,0-1.6,0.8-1.7,2.5H146.5L146.5,13.4z M64.6,5.9l0,48.1h-1.1l0-48.1H64.6L64.6,5.9z M95.2,35.1L100,44l-5.4,9.7h3.7l3.5-6.6l3.4,6.6h4.3l-5.5-10.2l4.7-8.4H105l-2.8,5.4l-2.7-5.4H95.2L95.2,35.1z M111,35.1h3.5v3.1c1-2.2,2.5-3.4,4.6-3.4c1.9,0,3.4,0.8,4.5,2.5c1.2,1.6,1.7,4,1.7,7c0,2.7-0.5,5-1.6,6.9c-1,1.9-2.7,2.9-4.9,2.9c-1.8,0-3.1-0.8-4.1-2.3V60H111V35.1L111,35.1z M114.9,45.9c0,1.2,0.1,2.1,0.3,2.8c0.2,0.7,0.5,1.2,1.1,1.7c0.5,0.5,1.2,0.7,1.9,0.7c2.2,0,3.2-2.3,3.2-6.9c0-4.4-1.1-6.7-3.2-6.7c-0.9,0-1.7,0.5-2.3,1.4c-0.6,0.9-0.9,2.2-0.9,3.9V45.9L114.9,45.9z M129,35.1h3.4v4.2c1-3,2.6-4.5,4.6-4.5c0.2,0,0.4,0,0.7,0.1v4c-0.3,0-0.6-0.1-0.8-0.1c-2.7,0-4.1,1.8-4.1,5.5v9.4H129V35.1L129,35.1z M152.8,45h-10.5c0,2.5,0.3,4.2,1,5c0.7,0.8,1.5,1.3,2.6,1.3c1.7,0,2.8-1.2,3.3-3.5l3.5,0.5c-0.9,3.9-3.2,5.9-6.9,5.9c-2.3,0-4-0.8-5.4-2.4c-1.3-1.6-2-4-2-7.1c0-3.2,0.7-5.7,2-7.4c1.4-1.7,3.2-2.6,5.4-2.6c1.6,0,2.9,0.4,4,1.3c1.1,0.9,1.8,2,2.3,3.4C152.6,40.8,152.8,42.7,152.8,45L152.8,45z M148.9,42.4c0-3.3-1.1-4.9-3.2-4.9c-2,0-3.1,1.6-3.3,4.9H148.9L148.9,42.4z M167.2,39.4l-3,0.8c-0.5-1.9-1.6-2.8-3.1-2.8c-0.7,0-1.3,0.2-1.7,0.7c-0.4,0.4-0.6,1-0.6,1.6c0,0.7,0.2,1.3,0.7,1.6c0.4,0.3,1.4,0.8,3,1.3c1.9,0.7,3.3,1.4,4.2,2.2c0.9,0.8,1.3,2,1.3,3.4c0,1.6-0.6,3-1.8,4.2c-1.2,1.1-2.9,1.7-5,1.7c-3.9,0-6.2-1.8-6.7-5.4l3.2-0.6c0.4,2.1,1.6,3.2,3.5,3.2c1,0,1.7-0.2,2.2-0.7c0.5-0.5,0.7-1.1,0.7-1.7c0-0.5-0.2-0.9-0.5-1.4c-0.3-0.5-1.3-0.9-2.8-1.4c-1.5-0.5-2.6-0.9-3.3-1.3c-0.7-0.4-1.3-1-1.8-1.8c-0.5-0.8-0.7-1.6-0.7-2.6c0-1.6,0.6-2.9,1.7-4c1.2-1.1,2.6-1.7,4.5-1.7C164.3,34.7,166.3,36.2,167.2,39.4L167.2,39.4z M182,39.4l-3,0.8c-0.5-1.9-1.6-2.8-3.1-2.8c-0.7,0-1.3,0.2-1.7,0.7c-0.4,0.4-0.6,1-0.6,1.6c0,0.7,0.2,1.3,0.7,1.6c0.4,0.3,1.4,0.8,3,1.3c1.9,0.7,3.3,1.4,4.2,2.2c0.9,0.8,1.3,2,1.3,3.4c0,1.6-0.6,3-1.8,4.2c-1.2,1.1-2.9,1.7-5,1.7c-3.9,0-6.2-1.8-6.7-5.4l3.2-0.6c0.4,2.1,1.6,3.2,3.5,3.2c1,0,1.7-0.2,2.2-0.7c0.5-0.5,0.7-1.1,0.7-1.7c0-0.5-0.2-0.9-0.5-1.4c-0.3-0.5-1.3-0.9-2.8-1.4c-1.5-0.5-2.6-0.9-3.3-1.3c-0.7-0.4-1.3-1-1.8-1.8c-0.5-0.8-0.7-1.6-0.7-2.6c0-1.6,0.6-2.9,1.7-4c1.2-1.1,2.6-1.7,4.5-1.7C179.1,34.7,181.1,36.2,182,39.4z"/>
</svg>
